<mxfile host="app.diagrams.net" modified="2021-07-23T09:04:09.635Z" agent="5.0 (Windows NT 10.0; Win64; x64) AppleWebKit/537.36 (KHTML, like Gecko) Chrome/91.0.4472.124 Safari/537.36" etag="hi5blSmk8ZqQBLAT3zFf" version="14.9.1" type="github" pages="7">
  <diagram id="IQn_MJ7tdE3Mbog3Oyrt" name="overall oauth">
    <mxGraphModel dx="1827" dy="507" grid="0" gridSize="10" guides="1" tooltips="1" connect="1" arrows="1" fold="1" page="1" pageScale="1" pageWidth="827" pageHeight="1169" math="0" shadow="0">
      <root>
        <mxCell id="0" />
        <mxCell id="1" parent="0" />
        <mxCell id="cm5UhN9ma7BzVIBEzsB2-56" value="" style="rounded=0;whiteSpace=wrap;html=1;fontSize=9;gradientColor=none;" parent="1" vertex="1">
          <mxGeometry x="560" y="455" width="165" height="200" as="geometry" />
        </mxCell>
        <mxCell id="cm5UhN9ma7BzVIBEzsB2-55" value="" style="rounded=0;whiteSpace=wrap;html=1;fontSize=9;gradientColor=none;" parent="1" vertex="1">
          <mxGeometry x="560" y="130" width="165" height="200" as="geometry" />
        </mxCell>
        <mxCell id="cm5UhN9ma7BzVIBEzsB2-54" value="" style="rounded=0;whiteSpace=wrap;html=1;fontSize=9;gradientColor=none;" parent="1" vertex="1">
          <mxGeometry x="-56.5" y="130" width="546.5" height="590" as="geometry" />
        </mxCell>
        <mxCell id="cm5UhN9ma7BzVIBEzsB2-41" value="" style="shape=cylinder3;whiteSpace=wrap;html=1;boundedLbl=1;backgroundOutline=1;size=15;fontSize=9;gradientColor=none;" parent="1" vertex="1">
          <mxGeometry x="-6.5" y="390" width="420" height="310" as="geometry" />
        </mxCell>
        <mxCell id="cm5UhN9ma7BzVIBEzsB2-1" value="Oauth" style="rounded=1;whiteSpace=wrap;html=1;" parent="1" vertex="1">
          <mxGeometry x="88.5" y="150" width="230" height="50" as="geometry" />
        </mxCell>
        <mxCell id="cm5UhN9ma7BzVIBEzsB2-2" value="Oauth Mgmt" style="rounded=1;whiteSpace=wrap;html=1;" parent="1" vertex="1">
          <mxGeometry x="158.5" y="270" width="90" height="50" as="geometry" />
        </mxCell>
        <mxCell id="cm5UhN9ma7BzVIBEzsB2-4" value="Horizon Auth" style="text;html=1;strokeColor=none;fillColor=none;align=center;verticalAlign=middle;whiteSpace=wrap;rounded=0;" parent="1" vertex="1">
          <mxGeometry x="141" y="80" width="125" height="20" as="geometry" />
        </mxCell>
        <mxCell id="cm5UhN9ma7BzVIBEzsB2-6" value="Horizon IAM" style="text;html=1;strokeColor=none;fillColor=none;align=center;verticalAlign=middle;whiteSpace=wrap;rounded=0;" parent="1" vertex="1">
          <mxGeometry x="577.5" y="100" width="130" height="20" as="geometry" />
        </mxCell>
        <mxCell id="cm5UhN9ma7BzVIBEzsB2-7" value="Identity" style="rounded=1;whiteSpace=wrap;html=1;" parent="1" vertex="1">
          <mxGeometry x="597.5" y="160" width="90" height="50" as="geometry" />
        </mxCell>
        <mxCell id="cm5UhN9ma7BzVIBEzsB2-8" value="User" style="rounded=1;whiteSpace=wrap;html=1;" parent="1" vertex="1">
          <mxGeometry x="597.5" y="240" width="90" height="50" as="geometry" />
        </mxCell>
        <mxCell id="cm5UhN9ma7BzVIBEzsB2-13" value="Client" style="swimlane;fontStyle=0;childLayout=stackLayout;horizontal=1;startSize=26;horizontalStack=0;resizeParent=1;resizeParentMax=0;resizeLast=0;collapsible=1;marginBottom=0;" parent="1" vertex="1">
          <mxGeometry x="188.5" y="426" width="50" height="104" as="geometry" />
        </mxCell>
        <mxCell id="cm5UhN9ma7BzVIBEzsB2-14" value="Item 1" style="text;strokeColor=none;fillColor=none;align=left;verticalAlign=top;spacingLeft=4;spacingRight=4;overflow=hidden;rotatable=0;points=[[0,0.5],[1,0.5]];portConstraint=eastwest;fontSize=8;" parent="cm5UhN9ma7BzVIBEzsB2-13" vertex="1">
          <mxGeometry y="26" width="50" height="26" as="geometry" />
        </mxCell>
        <mxCell id="cm5UhN9ma7BzVIBEzsB2-15" value="Item 2" style="text;strokeColor=none;fillColor=none;align=left;verticalAlign=top;spacingLeft=4;spacingRight=4;overflow=hidden;rotatable=0;points=[[0,0.5],[1,0.5]];portConstraint=eastwest;fontSize=8;" parent="cm5UhN9ma7BzVIBEzsB2-13" vertex="1">
          <mxGeometry y="52" width="50" height="26" as="geometry" />
        </mxCell>
        <mxCell id="cm5UhN9ma7BzVIBEzsB2-16" value="Item 3" style="text;strokeColor=none;fillColor=none;align=left;verticalAlign=top;spacingLeft=4;spacingRight=4;overflow=hidden;rotatable=0;points=[[0,0.5],[1,0.5]];portConstraint=eastwest;fontSize=8;" parent="cm5UhN9ma7BzVIBEzsB2-13" vertex="1">
          <mxGeometry y="78" width="50" height="26" as="geometry" />
        </mxCell>
        <mxCell id="cm5UhN9ma7BzVIBEzsB2-18" value="Scop" style="swimlane;fontStyle=0;childLayout=stackLayout;horizontal=1;startSize=26;horizontalStack=0;resizeParent=1;resizeParentMax=0;resizeLast=0;collapsible=1;marginBottom=0;" parent="1" vertex="1">
          <mxGeometry x="188.5" y="576" width="50" height="104" as="geometry" />
        </mxCell>
        <mxCell id="cm5UhN9ma7BzVIBEzsB2-19" value="Item 1" style="text;strokeColor=none;fillColor=none;align=left;verticalAlign=top;spacingLeft=4;spacingRight=4;overflow=hidden;rotatable=0;points=[[0,0.5],[1,0.5]];portConstraint=eastwest;fontSize=8;" parent="cm5UhN9ma7BzVIBEzsB2-18" vertex="1">
          <mxGeometry y="26" width="50" height="26" as="geometry" />
        </mxCell>
        <mxCell id="cm5UhN9ma7BzVIBEzsB2-20" value="Item 2" style="text;strokeColor=none;fillColor=none;align=left;verticalAlign=top;spacingLeft=4;spacingRight=4;overflow=hidden;rotatable=0;points=[[0,0.5],[1,0.5]];portConstraint=eastwest;fontSize=8;" parent="cm5UhN9ma7BzVIBEzsB2-18" vertex="1">
          <mxGeometry y="52" width="50" height="26" as="geometry" />
        </mxCell>
        <mxCell id="cm5UhN9ma7BzVIBEzsB2-21" value="Item 3" style="text;strokeColor=none;fillColor=none;align=left;verticalAlign=top;spacingLeft=4;spacingRight=4;overflow=hidden;rotatable=0;points=[[0,0.5],[1,0.5]];portConstraint=eastwest;fontSize=8;" parent="cm5UhN9ma7BzVIBEzsB2-18" vertex="1">
          <mxGeometry y="78" width="50" height="26" as="geometry" />
        </mxCell>
        <mxCell id="cm5UhN9ma7BzVIBEzsB2-22" value="Connection" style="swimlane;fontStyle=0;childLayout=stackLayout;horizontal=1;startSize=26;horizontalStack=0;resizeParent=1;resizeParentMax=0;resizeLast=0;collapsible=1;marginBottom=0;fontSize=9;" parent="1" vertex="1">
          <mxGeometry x="293.5" y="426" width="50" height="104" as="geometry" />
        </mxCell>
        <mxCell id="cm5UhN9ma7BzVIBEzsB2-23" value="Item 1" style="text;strokeColor=none;fillColor=none;align=left;verticalAlign=top;spacingLeft=4;spacingRight=4;overflow=hidden;rotatable=0;points=[[0,0.5],[1,0.5]];portConstraint=eastwest;fontSize=8;" parent="cm5UhN9ma7BzVIBEzsB2-22" vertex="1">
          <mxGeometry y="26" width="50" height="26" as="geometry" />
        </mxCell>
        <mxCell id="cm5UhN9ma7BzVIBEzsB2-24" value="Item 2" style="text;strokeColor=none;fillColor=none;align=left;verticalAlign=top;spacingLeft=4;spacingRight=4;overflow=hidden;rotatable=0;points=[[0,0.5],[1,0.5]];portConstraint=eastwest;fontSize=8;" parent="cm5UhN9ma7BzVIBEzsB2-22" vertex="1">
          <mxGeometry y="52" width="50" height="26" as="geometry" />
        </mxCell>
        <mxCell id="cm5UhN9ma7BzVIBEzsB2-25" value="Item 3" style="text;strokeColor=none;fillColor=none;align=left;verticalAlign=top;spacingLeft=4;spacingRight=4;overflow=hidden;rotatable=0;points=[[0,0.5],[1,0.5]];portConstraint=eastwest;fontSize=8;" parent="cm5UhN9ma7BzVIBEzsB2-22" vertex="1">
          <mxGeometry y="78" width="50" height="26" as="geometry" />
        </mxCell>
        <mxCell id="cm5UhN9ma7BzVIBEzsB2-26" value="      resource&#xa;server" style="swimlane;fontStyle=0;childLayout=stackLayout;horizontal=1;startSize=26;horizontalStack=0;resizeParent=1;resizeParentMax=0;resizeLast=0;collapsible=1;marginBottom=0;fontSize=9;" parent="1" vertex="1">
          <mxGeometry x="73.5" y="426" width="50" height="104" as="geometry" />
        </mxCell>
        <mxCell id="cm5UhN9ma7BzVIBEzsB2-27" value="Item 1" style="text;strokeColor=none;fillColor=none;align=left;verticalAlign=top;spacingLeft=4;spacingRight=4;overflow=hidden;rotatable=0;points=[[0,0.5],[1,0.5]];portConstraint=eastwest;fontSize=8;" parent="cm5UhN9ma7BzVIBEzsB2-26" vertex="1">
          <mxGeometry y="26" width="50" height="26" as="geometry" />
        </mxCell>
        <mxCell id="cm5UhN9ma7BzVIBEzsB2-28" value="Item 2" style="text;strokeColor=none;fillColor=none;align=left;verticalAlign=top;spacingLeft=4;spacingRight=4;overflow=hidden;rotatable=0;points=[[0,0.5],[1,0.5]];portConstraint=eastwest;fontSize=8;" parent="cm5UhN9ma7BzVIBEzsB2-26" vertex="1">
          <mxGeometry y="52" width="50" height="26" as="geometry" />
        </mxCell>
        <mxCell id="cm5UhN9ma7BzVIBEzsB2-29" value="Item 3" style="text;strokeColor=none;fillColor=none;align=left;verticalAlign=top;spacingLeft=4;spacingRight=4;overflow=hidden;rotatable=0;points=[[0,0.5],[1,0.5]];portConstraint=eastwest;fontSize=8;" parent="cm5UhN9ma7BzVIBEzsB2-26" vertex="1">
          <mxGeometry y="78" width="50" height="26" as="geometry" />
        </mxCell>
        <mxCell id="cm5UhN9ma7BzVIBEzsB2-30" value="&lt;div&gt;&lt;br&gt;&lt;/div&gt;&lt;ul&gt;&lt;li&gt;&lt;font&gt;&lt;font style=&quot;font-size: 16px&quot;&gt;Connections can be managed project level,&amp;nbsp; for example,&amp;nbsp; VR project can have:&amp;nbsp; HPID pro, HPID stg,&amp;nbsp; Azure dev ...&lt;/font&gt;&lt;/font&gt;&lt;/li&gt;&lt;/ul&gt;&lt;font&gt;&lt;br&gt;&lt;br&gt;&lt;br&gt;&lt;font style=&quot;font-size: 14px&quot;&gt;&lt;font&gt;Step 1:&lt;br&gt;a. No acr values for idp founded,&amp;nbsp; redirect and let user select&lt;br&gt;&lt;br&gt;b. Get client, validate scope and the scopes bind to this client&lt;br&gt;&lt;br&gt;c. Get connection for the IDP info, redirect and the user login&lt;br&gt;&lt;/font&gt;&lt;br&gt;&lt;font&gt;Step 2&lt;/font&gt;&lt;/font&gt;&lt;font&gt;&lt;font style=&quot;font-size: 14px&quot;&gt;:&lt;br&gt;&lt;br&gt;&lt;/font&gt;&lt;font&gt;&lt;font style=&quot;font-size: 14px&quot;&gt;a.&amp;nbsp; Get IDP connection info and get user profile and token&lt;br&gt;b. Have customized flow, for register user in the IAM system,&amp;nbsp; also can customize claim here,&amp;nbsp; set claim related to user info.&lt;br&gt;&lt;br&gt;&lt;br&gt;Step 3&lt;br&gt;a. customize token claim&lt;br&gt;b. Access resource server for issue token,&amp;nbsp; like audience&lt;/font&gt;&lt;br&gt;&lt;br&gt;&lt;br&gt;&lt;br&gt;&lt;/font&gt;&lt;br&gt;&lt;/font&gt;&lt;br&gt;&lt;br&gt;&lt;br&gt;&lt;br&gt;&lt;/font&gt;" style="text;html=1;strokeColor=none;fillColor=none;align=left;verticalAlign=middle;whiteSpace=wrap;rounded=0;fontSize=9;" parent="1" vertex="1">
          <mxGeometry x="-480" y="187.5" width="400" height="475" as="geometry" />
        </mxCell>
        <mxCell id="cm5UhN9ma7BzVIBEzsB2-37" value="" style="endArrow=classic;html=1;fontSize=9;" parent="1" edge="1">
          <mxGeometry width="50" height="50" relative="1" as="geometry">
            <mxPoint x="178.5" y="200" as="sourcePoint" />
            <mxPoint x="178.5" y="270" as="targetPoint" />
          </mxGeometry>
        </mxCell>
        <mxCell id="cm5UhN9ma7BzVIBEzsB2-38" value="" style="endArrow=classic;html=1;fontSize=9;" parent="1" edge="1">
          <mxGeometry width="50" height="50" relative="1" as="geometry">
            <mxPoint x="213.5" y="270" as="sourcePoint" />
            <mxPoint x="214" y="200" as="targetPoint" />
          </mxGeometry>
        </mxCell>
        <mxCell id="cm5UhN9ma7BzVIBEzsB2-39" value="" style="endArrow=classic;html=1;fontSize=9;entryX=0.5;entryY=1;entryDx=0;entryDy=0;exitX=0.5;exitY=0;exitDx=0;exitDy=0;exitPerimeter=0;" parent="1" source="cm5UhN9ma7BzVIBEzsB2-41" target="cm5UhN9ma7BzVIBEzsB2-2" edge="1">
          <mxGeometry width="50" height="50" relative="1" as="geometry">
            <mxPoint x="203.5" y="370" as="sourcePoint" />
            <mxPoint x="203" y="320" as="targetPoint" />
          </mxGeometry>
        </mxCell>
        <mxCell id="cm5UhN9ma7BzVIBEzsB2-42" value="" style="endArrow=classic;html=1;fontSize=9;" parent="1" edge="1">
          <mxGeometry width="50" height="50" relative="1" as="geometry">
            <mxPoint x="293.5" y="490" as="sourcePoint" />
            <mxPoint x="238.5" y="490" as="targetPoint" />
          </mxGeometry>
        </mxCell>
        <mxCell id="cm5UhN9ma7BzVIBEzsB2-45" value="" style="endArrow=classic;html=1;fontSize=9;entryX=0;entryY=0.5;entryDx=0;entryDy=0;" parent="1" target="cm5UhN9ma7BzVIBEzsB2-15" edge="1">
          <mxGeometry width="50" height="50" relative="1" as="geometry">
            <mxPoint x="123.5" y="490" as="sourcePoint" />
            <mxPoint x="173.5" y="490" as="targetPoint" />
          </mxGeometry>
        </mxCell>
        <mxCell id="cm5UhN9ma7BzVIBEzsB2-46" value="" style="endArrow=classic;html=1;fontSize=9;exitX=0.991;exitY=0.32;exitDx=0;exitDy=0;exitPerimeter=0;dashed=1;" parent="1" source="cm5UhN9ma7BzVIBEzsB2-20" target="cm5UhN9ma7BzVIBEzsB2-16" edge="1">
          <mxGeometry width="50" height="50" relative="1" as="geometry">
            <mxPoint x="493.5" y="650" as="sourcePoint" />
            <mxPoint x="543.5" y="600" as="targetPoint" />
            <Array as="points">
              <mxPoint x="283.5" y="636" />
              <mxPoint x="283.5" y="550" />
              <mxPoint x="213.5" y="550" />
            </Array>
          </mxGeometry>
        </mxCell>
        <mxCell id="cm5UhN9ma7BzVIBEzsB2-47" value="" style="endArrow=classic;html=1;fontSize=9;exitX=0;exitY=0.5;exitDx=0;exitDy=0;" parent="1" source="cm5UhN9ma7BzVIBEzsB2-20" target="cm5UhN9ma7BzVIBEzsB2-29" edge="1">
          <mxGeometry width="50" height="50" relative="1" as="geometry">
            <mxPoint x="103.5" y="640" as="sourcePoint" />
            <mxPoint x="153.5" y="590" as="targetPoint" />
            <Array as="points">
              <mxPoint x="98.5" y="641" />
            </Array>
          </mxGeometry>
        </mxCell>
        <mxCell id="cm5UhN9ma7BzVIBEzsB2-49" value="solution&amp;nbsp; IAM" style="text;html=1;strokeColor=none;fillColor=none;align=center;verticalAlign=middle;whiteSpace=wrap;rounded=0;" parent="1" vertex="1">
          <mxGeometry x="577.5" y="425" width="130" height="20" as="geometry" />
        </mxCell>
        <mxCell id="cm5UhN9ma7BzVIBEzsB2-50" value="Identity" style="rounded=1;whiteSpace=wrap;html=1;" parent="1" vertex="1">
          <mxGeometry x="597.5" y="485" width="90" height="50" as="geometry" />
        </mxCell>
        <mxCell id="cm5UhN9ma7BzVIBEzsB2-51" value="User" style="rounded=1;whiteSpace=wrap;html=1;" parent="1" vertex="1">
          <mxGeometry x="597.5" y="565" width="90" height="50" as="geometry" />
        </mxCell>
        <mxCell id="cm5UhN9ma7BzVIBEzsB2-52" value="" style="endArrow=classic;startArrow=classic;html=1;fontSize=9;" parent="1" edge="1">
          <mxGeometry width="50" height="50" relative="1" as="geometry">
            <mxPoint x="642.1600000000001" y="240" as="sourcePoint" />
            <mxPoint x="642.1600000000001" y="210" as="targetPoint" />
          </mxGeometry>
        </mxCell>
        <mxCell id="cm5UhN9ma7BzVIBEzsB2-53" value="" style="endArrow=classic;startArrow=classic;html=1;fontSize=9;" parent="1" edge="1">
          <mxGeometry width="50" height="50" relative="1" as="geometry">
            <mxPoint x="642.1599999999999" y="565" as="sourcePoint" />
            <mxPoint x="642.1599999999999" y="535" as="targetPoint" />
          </mxGeometry>
        </mxCell>
        <mxCell id="cm5UhN9ma7BzVIBEzsB2-57" value="Func engion" style="rounded=1;whiteSpace=wrap;html=1;fontSize=9;fillColor=#f8cecc;strokeColor=#b85450;" parent="1" vertex="1">
          <mxGeometry x="268.5" y="155" width="50" height="40" as="geometry" />
        </mxCell>
        <mxCell id="cm5UhN9ma7BzVIBEzsB2-61" value="OPA" style="rounded=1;whiteSpace=wrap;html=1;fontSize=9;fillColor=#f8cecc;strokeColor=#b85450;" parent="1" vertex="1">
          <mxGeometry x="88.5" y="155" width="50" height="40" as="geometry" />
        </mxCell>
        <mxCell id="cm5UhN9ma7BzVIBEzsB2-62" value="Bundle" style="rounded=1;whiteSpace=wrap;html=1;" parent="1" vertex="1">
          <mxGeometry x="10" y="270" width="90" height="50" as="geometry" />
        </mxCell>
        <mxCell id="cm5UhN9ma7BzVIBEzsB2-63" value="" style="endArrow=classic;startArrow=classic;html=1;shadow=0;fontSize=9;entryX=0;entryY=0.5;entryDx=0;entryDy=0;" parent="1" target="cm5UhN9ma7BzVIBEzsB2-61" edge="1">
          <mxGeometry width="50" height="50" relative="1" as="geometry">
            <mxPoint x="50" y="270" as="sourcePoint" />
            <mxPoint x="50" y="210" as="targetPoint" />
            <Array as="points">
              <mxPoint x="50" y="175" />
            </Array>
          </mxGeometry>
        </mxCell>
        <mxCell id="cm5UhN9ma7BzVIBEzsB2-64" value="" style="endArrow=classic;startArrow=classic;html=1;shadow=0;fontSize=9;entryX=0;entryY=0.5;entryDx=0;entryDy=0;exitX=1;exitY=0.5;exitDx=0;exitDy=0;" parent="1" source="cm5UhN9ma7BzVIBEzsB2-57" target="cm5UhN9ma7BzVIBEzsB2-55" edge="1">
          <mxGeometry width="50" height="50" relative="1" as="geometry">
            <mxPoint x="500" y="280" as="sourcePoint" />
            <mxPoint x="550" y="230" as="targetPoint" />
          </mxGeometry>
        </mxCell>
        <mxCell id="cm5UhN9ma7BzVIBEzsB2-65" value="" style="endArrow=classic;startArrow=classic;html=1;shadow=0;fontSize=9;entryX=0;entryY=0.5;entryDx=0;entryDy=0;" parent="1" source="cm5UhN9ma7BzVIBEzsB2-57" target="cm5UhN9ma7BzVIBEzsB2-56" edge="1">
          <mxGeometry width="50" height="50" relative="1" as="geometry">
            <mxPoint x="343.5" y="340" as="sourcePoint" />
            <mxPoint x="697.5" y="385" as="targetPoint" />
          </mxGeometry>
        </mxCell>
      </root>
    </mxGraphModel>
  </diagram>
  <diagram id="wief-TQDNbuDF8WF_Twj" name="Event system">
    <mxGraphModel dx="994" dy="536" grid="0" gridSize="10" guides="1" tooltips="1" connect="1" arrows="1" fold="1" page="1" pageScale="1" pageWidth="827" pageHeight="1169" math="0" shadow="0">
      <root>
        <mxCell id="824z70k770UWUd_179WO-0" />
        <mxCell id="824z70k770UWUd_179WO-1" parent="824z70k770UWUd_179WO-0" />
        <mxCell id="cNpe54T5A7_rmGW5pdE6-75" value="" style="rounded=1;whiteSpace=wrap;html=1;" parent="824z70k770UWUd_179WO-1" vertex="1">
          <mxGeometry x="150" y="810" width="101.25" height="132.5" as="geometry" />
        </mxCell>
        <mxCell id="cNpe54T5A7_rmGW5pdE6-66" value="" style="rounded=1;whiteSpace=wrap;html=1;" parent="824z70k770UWUd_179WO-1" vertex="1">
          <mxGeometry x="350" y="720" width="100" height="90" as="geometry" />
        </mxCell>
        <mxCell id="cNpe54T5A7_rmGW5pdE6-40" value="" style="rounded=1;whiteSpace=wrap;html=1;" parent="824z70k770UWUd_179WO-1" vertex="1">
          <mxGeometry x="350" y="920" width="100" height="90" as="geometry" />
        </mxCell>
        <mxCell id="cNpe54T5A7_rmGW5pdE6-38" value="" style="rounded=1;whiteSpace=wrap;html=1;" parent="824z70k770UWUd_179WO-1" vertex="1">
          <mxGeometry x="180" y="485" width="275" height="200" as="geometry" />
        </mxCell>
        <mxCell id="cNpe54T5A7_rmGW5pdE6-4" value="&lt;span style=&quot;font-size: 9px&quot;&gt;push notification service&lt;/span&gt;" style="rounded=1;whiteSpace=wrap;html=1;" parent="824z70k770UWUd_179WO-1" vertex="1">
          <mxGeometry x="360" y="510" width="80" height="30" as="geometry" />
        </mxCell>
        <mxCell id="cNpe54T5A7_rmGW5pdE6-5" value="&lt;span style=&quot;font-size: 9px&quot;&gt;push notification service&lt;/span&gt;" style="rounded=1;whiteSpace=wrap;html=1;" parent="824z70k770UWUd_179WO-1" vertex="1">
          <mxGeometry x="360" y="560" width="80" height="30" as="geometry" />
        </mxCell>
        <mxCell id="cNpe54T5A7_rmGW5pdE6-9" value="&lt;font style=&quot;font-size: 9px&quot;&gt;NATS server&lt;/font&gt;" style="rounded=1;whiteSpace=wrap;html=1;" parent="824z70k770UWUd_179WO-1" vertex="1">
          <mxGeometry x="210" y="550" width="80" height="50" as="geometry" />
        </mxCell>
        <mxCell id="cNpe54T5A7_rmGW5pdE6-11" value="" style="endArrow=classic;html=1;exitX=1;exitY=0.5;exitDx=0;exitDy=0;entryX=0;entryY=0.5;entryDx=0;entryDy=0;" parent="824z70k770UWUd_179WO-1" source="cNpe54T5A7_rmGW5pdE6-9" target="cNpe54T5A7_rmGW5pdE6-4" edge="1">
          <mxGeometry width="50" height="50" relative="1" as="geometry">
            <mxPoint x="370" y="500" as="sourcePoint" />
            <mxPoint x="420" y="450" as="targetPoint" />
          </mxGeometry>
        </mxCell>
        <mxCell id="cNpe54T5A7_rmGW5pdE6-12" value="" style="endArrow=classic;html=1;exitX=1;exitY=0.5;exitDx=0;exitDy=0;entryX=0;entryY=0.5;entryDx=0;entryDy=0;" parent="824z70k770UWUd_179WO-1" source="cNpe54T5A7_rmGW5pdE6-9" target="cNpe54T5A7_rmGW5pdE6-5" edge="1">
          <mxGeometry width="50" height="50" relative="1" as="geometry">
            <mxPoint x="300" y="535" as="sourcePoint" />
            <mxPoint x="370" y="545" as="targetPoint" />
          </mxGeometry>
        </mxCell>
        <mxCell id="cNpe54T5A7_rmGW5pdE6-14" value="&lt;font style=&quot;font-size: 9px&quot;&gt;solution service&lt;br&gt;&lt;/font&gt;" style="rounded=1;whiteSpace=wrap;html=1;" parent="824z70k770UWUd_179WO-1" vertex="1">
          <mxGeometry x="360" y="720" width="80" height="50" as="geometry" />
        </mxCell>
        <mxCell id="cNpe54T5A7_rmGW5pdE6-17" value="" style="endArrow=classic;html=1;strokeWidth=3;exitX=0.5;exitY=0;exitDx=0;exitDy=0;" parent="824z70k770UWUd_179WO-1" source="cNpe54T5A7_rmGW5pdE6-66" target="cNpe54T5A7_rmGW5pdE6-48" edge="1">
          <mxGeometry width="50" height="50" relative="1" as="geometry">
            <mxPoint x="240" y="730" as="sourcePoint" />
            <mxPoint x="250" y="650" as="targetPoint" />
          </mxGeometry>
        </mxCell>
        <mxCell id="cNpe54T5A7_rmGW5pdE6-22" value="API" style="text;html=1;strokeColor=none;fillColor=none;align=center;verticalAlign=middle;whiteSpace=wrap;rounded=0;" parent="824z70k770UWUd_179WO-1" vertex="1">
          <mxGeometry x="400" y="690" width="40" height="20" as="geometry" />
        </mxCell>
        <mxCell id="cNpe54T5A7_rmGW5pdE6-23" value="Client" style="ellipse;whiteSpace=wrap;html=1;" parent="824z70k770UWUd_179WO-1" vertex="1">
          <mxGeometry x="590" y="560" width="100" height="50" as="geometry" />
        </mxCell>
        <mxCell id="cNpe54T5A7_rmGW5pdE6-24" value="" style="endArrow=none;dashed=1;html=1;strokeWidth=1;entryX=0;entryY=0.5;entryDx=0;entryDy=0;exitX=1;exitY=0.5;exitDx=0;exitDy=0;" parent="824z70k770UWUd_179WO-1" source="cNpe54T5A7_rmGW5pdE6-4" target="cNpe54T5A7_rmGW5pdE6-23" edge="1">
          <mxGeometry width="50" height="50" relative="1" as="geometry">
            <mxPoint x="420" y="670" as="sourcePoint" />
            <mxPoint x="470" y="620" as="targetPoint" />
          </mxGeometry>
        </mxCell>
        <mxCell id="cNpe54T5A7_rmGW5pdE6-25" value="" style="endArrow=none;dashed=1;html=1;strokeWidth=1;entryX=0.074;entryY=0.729;entryDx=0;entryDy=0;exitX=1.01;exitY=0.564;exitDx=0;exitDy=0;exitPerimeter=0;entryPerimeter=0;" parent="824z70k770UWUd_179WO-1" source="cNpe54T5A7_rmGW5pdE6-5" target="cNpe54T5A7_rmGW5pdE6-23" edge="1">
          <mxGeometry width="50" height="50" relative="1" as="geometry">
            <mxPoint x="450" y="545" as="sourcePoint" />
            <mxPoint x="600" y="595" as="targetPoint" />
          </mxGeometry>
        </mxCell>
        <mxCell id="cNpe54T5A7_rmGW5pdE6-26" value="" style="endArrow=none;dashed=1;html=1;strokeWidth=1;exitX=1;exitY=0.844;exitDx=0;exitDy=0;exitPerimeter=0;" parent="824z70k770UWUd_179WO-1" source="cNpe54T5A7_rmGW5pdE6-4" edge="1">
          <mxGeometry width="50" height="50" relative="1" as="geometry">
            <mxPoint x="450.79999999999995" y="618.2" as="sourcePoint" />
            <mxPoint x="590" y="590" as="targetPoint" />
          </mxGeometry>
        </mxCell>
        <mxCell id="cNpe54T5A7_rmGW5pdE6-27" value="" style="endArrow=none;dashed=1;html=1;strokeWidth=1;exitX=1;exitY=0.75;exitDx=0;exitDy=0;entryX=0;entryY=1;entryDx=0;entryDy=0;" parent="824z70k770UWUd_179WO-1" source="cNpe54T5A7_rmGW5pdE6-5" target="cNpe54T5A7_rmGW5pdE6-23" edge="1">
          <mxGeometry width="50" height="50" relative="1" as="geometry">
            <mxPoint x="450.79999999999995" y="618.2" as="sourcePoint" />
            <mxPoint x="590" y="590" as="targetPoint" />
          </mxGeometry>
        </mxCell>
        <mxCell id="cNpe54T5A7_rmGW5pdE6-28" value="&lt;span style=&quot;font-size: 7px&quot;&gt;1. ws server&amp;nbsp; will maitain the SubID to ws connection mapping info&amp;nbsp;&lt;br&gt;2. push notification serve push API,&amp;nbsp; publish message to related topic.&amp;nbsp; Topic&amp;nbsp; name may contain tenant info&lt;br&gt;&lt;/span&gt;" style="text;html=1;strokeColor=none;fillColor=none;align=left;verticalAlign=middle;whiteSpace=wrap;rounded=0;" parent="824z70k770UWUd_179WO-1" vertex="1">
          <mxGeometry x="210" y="425" width="245" height="55" as="geometry" />
        </mxCell>
        <mxCell id="cNpe54T5A7_rmGW5pdE6-30" value="&lt;font style=&quot;font-size: 8px&quot;&gt;connect with one unique SubID,&amp;nbsp; token info for connection authenticate&lt;/font&gt;" style="text;html=1;strokeColor=none;fillColor=none;align=center;verticalAlign=middle;whiteSpace=wrap;rounded=0;" parent="824z70k770UWUd_179WO-1" vertex="1">
          <mxGeometry x="590" y="510" width="90" height="40" as="geometry" />
        </mxCell>
        <mxCell id="cNpe54T5A7_rmGW5pdE6-31" value="&lt;span style=&quot;font-size: 8px&quot;&gt;push for the SubID&lt;/span&gt;" style="text;html=1;strokeColor=none;fillColor=none;align=center;verticalAlign=middle;whiteSpace=wrap;rounded=0;" parent="824z70k770UWUd_179WO-1" vertex="1">
          <mxGeometry x="304" y="690" width="110" height="20" as="geometry" />
        </mxCell>
        <mxCell id="cNpe54T5A7_rmGW5pdE6-33" value="&lt;span style=&quot;font-size: 7px&quot;&gt;msg&lt;/span&gt;" style="text;html=1;strokeColor=none;fillColor=none;align=center;verticalAlign=middle;whiteSpace=wrap;rounded=0;" parent="824z70k770UWUd_179WO-1" vertex="1">
          <mxGeometry x="307.5" y="530" width="30" height="10" as="geometry" />
        </mxCell>
        <mxCell id="cNpe54T5A7_rmGW5pdE6-34" value="&lt;span style=&quot;font-size: 7px&quot;&gt;msg&lt;/span&gt;" style="text;html=1;strokeColor=none;fillColor=none;align=center;verticalAlign=middle;whiteSpace=wrap;rounded=0;" parent="824z70k770UWUd_179WO-1" vertex="1">
          <mxGeometry x="310" y="560" width="30" height="10" as="geometry" />
        </mxCell>
        <mxCell id="cNpe54T5A7_rmGW5pdE6-35" value="&lt;span style=&quot;font-size: 7px&quot;&gt;msg&lt;/span&gt;" style="text;html=1;strokeColor=none;fillColor=none;align=center;verticalAlign=middle;whiteSpace=wrap;rounded=0;" parent="824z70k770UWUd_179WO-1" vertex="1">
          <mxGeometry x="310" y="600" width="30" height="10" as="geometry" />
        </mxCell>
        <mxCell id="cNpe54T5A7_rmGW5pdE6-36" value="&lt;font style=&quot;font-size: 7px&quot;&gt;ws connection&lt;/font&gt;&amp;nbsp;" style="text;html=1;strokeColor=none;fillColor=none;align=center;verticalAlign=middle;whiteSpace=wrap;rounded=0;" parent="824z70k770UWUd_179WO-1" vertex="1">
          <mxGeometry x="510" y="530" width="50" height="20" as="geometry" />
        </mxCell>
        <mxCell id="cNpe54T5A7_rmGW5pdE6-39" value="&lt;font style=&quot;font-size: 8px&quot;&gt;&lt;font style=&quot;font-size: 8px&quot;&gt;Horizon&lt;/font&gt;&amp;nbsp;core&amp;nbsp;&lt;/font&gt;" style="text;html=1;strokeColor=none;fillColor=none;align=center;verticalAlign=middle;whiteSpace=wrap;rounded=0;" parent="824z70k770UWUd_179WO-1" vertex="1">
          <mxGeometry x="282.5" y="480" width="80" height="20" as="geometry" />
        </mxCell>
        <mxCell id="cNpe54T5A7_rmGW5pdE6-41" value="&lt;span style=&quot;font-size: 8px&quot;&gt;dev cluster&lt;/span&gt;" style="text;html=1;strokeColor=none;fillColor=none;align=center;verticalAlign=middle;whiteSpace=wrap;rounded=0;" parent="824z70k770UWUd_179WO-1" vertex="1">
          <mxGeometry x="372" y="790" width="56" height="20" as="geometry" />
        </mxCell>
        <mxCell id="cNpe54T5A7_rmGW5pdE6-48" value="&lt;span style=&quot;font-size: 9px&quot;&gt;push notification service&lt;/span&gt;" style="rounded=1;whiteSpace=wrap;html=1;" parent="824z70k770UWUd_179WO-1" vertex="1">
          <mxGeometry x="360" y="610" width="80" height="30" as="geometry" />
        </mxCell>
        <mxCell id="cNpe54T5A7_rmGW5pdE6-49" value="" style="endArrow=classic;html=1;exitX=1;exitY=0.5;exitDx=0;exitDy=0;entryX=0;entryY=0.5;entryDx=0;entryDy=0;" parent="824z70k770UWUd_179WO-1" source="cNpe54T5A7_rmGW5pdE6-9" target="cNpe54T5A7_rmGW5pdE6-48" edge="1">
          <mxGeometry width="50" height="50" relative="1" as="geometry">
            <mxPoint x="300" y="585" as="sourcePoint" />
            <mxPoint x="370" y="585" as="targetPoint" />
          </mxGeometry>
        </mxCell>
        <mxCell id="cNpe54T5A7_rmGW5pdE6-50" value="" style="endArrow=none;dashed=1;html=1;strokeWidth=1;exitX=1;exitY=0.75;exitDx=0;exitDy=0;entryX=0.229;entryY=0.934;entryDx=0;entryDy=0;entryPerimeter=0;" parent="824z70k770UWUd_179WO-1" target="cNpe54T5A7_rmGW5pdE6-23" edge="1">
          <mxGeometry width="50" height="50" relative="1" as="geometry">
            <mxPoint x="440" y="619.92" as="sourcePoint" />
            <mxPoint x="604.4408888717735" y="639.99519285648" as="targetPoint" />
          </mxGeometry>
        </mxCell>
        <mxCell id="cNpe54T5A7_rmGW5pdE6-51" value="" style="endArrow=none;dashed=1;html=1;strokeWidth=1;exitX=1;exitY=0.75;exitDx=0;exitDy=0;entryX=0.5;entryY=1;entryDx=0;entryDy=0;" parent="824z70k770UWUd_179WO-1" target="cNpe54T5A7_rmGW5pdE6-23" edge="1">
          <mxGeometry width="50" height="50" relative="1" as="geometry">
            <mxPoint x="440" y="631.6100000000001" as="sourcePoint" />
            <mxPoint x="612.8999999999999" y="618.3900000000001" as="targetPoint" />
          </mxGeometry>
        </mxCell>
        <mxCell id="cNpe54T5A7_rmGW5pdE6-52" value="" style="endArrow=classic;html=1;strokeWidth=1;entryX=0.5;entryY=1;entryDx=0;entryDy=0;exitX=0;exitY=1;exitDx=0;exitDy=0;" parent="824z70k770UWUd_179WO-1" source="cNpe54T5A7_rmGW5pdE6-48" target="cNpe54T5A7_rmGW5pdE6-9" edge="1">
          <mxGeometry width="50" height="50" relative="1" as="geometry">
            <mxPoint x="450" y="740" as="sourcePoint" />
            <mxPoint x="500" y="690" as="targetPoint" />
          </mxGeometry>
        </mxCell>
        <mxCell id="cNpe54T5A7_rmGW5pdE6-53" value="1" style="text;html=1;strokeColor=none;fillColor=none;align=center;verticalAlign=middle;whiteSpace=wrap;rounded=0;" parent="824z70k770UWUd_179WO-1" vertex="1">
          <mxGeometry x="380" y="665" width="20" height="20" as="geometry" />
        </mxCell>
        <mxCell id="cNpe54T5A7_rmGW5pdE6-55" value="2&lt;span style=&quot;color: rgba(0 , 0 , 0 , 0) ; font-family: monospace ; font-size: 0px&quot;&gt;%3CmxGraphModel%3E%3Croot%3E%3CmxCell%20id%3D%220%22%2F%3E%3CmxCell%20id%3D%221%22%20parent%3D%220%22%2F%3E%3CmxCell%20id%3D%222%22%20value%3D%221%22%20style%3D%22text%3Bhtml%3D1%3BstrokeColor%3Dnone%3BfillColor%3Dnone%3Balign%3Dcenter%3BverticalAlign%3Dmiddle%3BwhiteSpace%3Dwrap%3Brounded%3D0%3B%22%20vertex%3D%221%22%20parent%3D%221%22%3E%3CmxGeometry%20x%3D%22380%22%20y%3D%22665%22%20width%3D%2220%22%20height%3D%2220%22%20as%3D%22geometry%22%2F%3E%3C%2FmxCell%3E%3C%2Froot%3E%3C%2FmxGraphModel%3E&lt;/span&gt;" style="text;html=1;strokeColor=none;fillColor=none;align=center;verticalAlign=middle;whiteSpace=wrap;rounded=0;" parent="824z70k770UWUd_179WO-1" vertex="1">
          <mxGeometry x="280" y="615" width="20" height="20" as="geometry" />
        </mxCell>
        <mxCell id="cNpe54T5A7_rmGW5pdE6-56" value="3" style="text;html=1;strokeColor=none;fillColor=none;align=center;verticalAlign=middle;whiteSpace=wrap;rounded=0;" parent="824z70k770UWUd_179WO-1" vertex="1">
          <mxGeometry x="330" y="575" width="20" height="20" as="geometry" />
        </mxCell>
        <mxCell id="cNpe54T5A7_rmGW5pdE6-58" value="3" style="text;html=1;strokeColor=none;fillColor=none;align=center;verticalAlign=middle;whiteSpace=wrap;rounded=0;" parent="824z70k770UWUd_179WO-1" vertex="1">
          <mxGeometry x="300" y="550" width="20" height="5" as="geometry" />
        </mxCell>
        <mxCell id="cNpe54T5A7_rmGW5pdE6-59" value="3" style="text;html=1;strokeColor=none;fillColor=none;align=center;verticalAlign=middle;whiteSpace=wrap;rounded=0;" parent="824z70k770UWUd_179WO-1" vertex="1">
          <mxGeometry x="300" y="590" width="20" height="20" as="geometry" />
        </mxCell>
        <mxCell id="cNpe54T5A7_rmGW5pdE6-63" value="&lt;font style=&quot;font-size: 9px&quot;&gt;solution service&lt;br&gt;&lt;/font&gt;" style="rounded=1;whiteSpace=wrap;html=1;" parent="824z70k770UWUd_179WO-1" vertex="1">
          <mxGeometry x="360" y="840" width="80" height="50" as="geometry" />
        </mxCell>
        <mxCell id="cNpe54T5A7_rmGW5pdE6-64" value="&lt;font style=&quot;font-size: 9px&quot;&gt;solution service&lt;br&gt;&lt;/font&gt;" style="rounded=1;whiteSpace=wrap;html=1;" parent="824z70k770UWUd_179WO-1" vertex="1">
          <mxGeometry x="360" y="920" width="80" height="50" as="geometry" />
        </mxCell>
        <mxCell id="cNpe54T5A7_rmGW5pdE6-65" value="" style="rounded=1;whiteSpace=wrap;html=1;" parent="824z70k770UWUd_179WO-1" vertex="1">
          <mxGeometry x="350" y="820" width="100" height="90" as="geometry" />
        </mxCell>
        <mxCell id="cNpe54T5A7_rmGW5pdE6-68" value="&lt;font style=&quot;font-size: 9px&quot;&gt;solution service&lt;br&gt;&lt;/font&gt;" style="rounded=1;whiteSpace=wrap;html=1;" parent="824z70k770UWUd_179WO-1" vertex="1">
          <mxGeometry x="360" y="820" width="80" height="50" as="geometry" />
        </mxCell>
        <mxCell id="cNpe54T5A7_rmGW5pdE6-72" value="&lt;span style=&quot;font-size: 8px&quot;&gt;stg cluster&lt;/span&gt;" style="text;html=1;strokeColor=none;fillColor=none;align=center;verticalAlign=middle;whiteSpace=wrap;rounded=0;" parent="824z70k770UWUd_179WO-1" vertex="1">
          <mxGeometry x="372" y="890" width="56" height="20" as="geometry" />
        </mxCell>
        <mxCell id="cNpe54T5A7_rmGW5pdE6-73" value="&lt;span style=&quot;font-size: 8px&quot;&gt;pro cluster&lt;/span&gt;" style="text;html=1;strokeColor=none;fillColor=none;align=center;verticalAlign=middle;whiteSpace=wrap;rounded=0;" parent="824z70k770UWUd_179WO-1" vertex="1">
          <mxGeometry x="372" y="990" width="56" height="20" as="geometry" />
        </mxCell>
        <mxCell id="cNpe54T5A7_rmGW5pdE6-74" value="Dev account" style="rounded=0;whiteSpace=wrap;html=1;" parent="824z70k770UWUd_179WO-1" vertex="1">
          <mxGeometry x="165.62" y="835" width="70" height="30" as="geometry" />
        </mxCell>
        <mxCell id="cNpe54T5A7_rmGW5pdE6-76" value="Stg account" style="rounded=0;whiteSpace=wrap;html=1;" parent="824z70k770UWUd_179WO-1" vertex="1">
          <mxGeometry x="165.62" y="865" width="70" height="30" as="geometry" />
        </mxCell>
        <mxCell id="cNpe54T5A7_rmGW5pdE6-77" value="Pro account" style="rounded=0;whiteSpace=wrap;html=1;" parent="824z70k770UWUd_179WO-1" vertex="1">
          <mxGeometry x="165.62" y="895" width="70" height="30" as="geometry" />
        </mxCell>
        <mxCell id="cNpe54T5A7_rmGW5pdE6-78" value="&lt;span style=&quot;font-size: 8px&quot;&gt;NATS server&lt;/span&gt;" style="text;html=1;strokeColor=none;fillColor=none;align=center;verticalAlign=middle;whiteSpace=wrap;rounded=0;" parent="824z70k770UWUd_179WO-1" vertex="1">
          <mxGeometry x="170" y="811.25" width="53.43" height="20" as="geometry" />
        </mxCell>
        <mxCell id="cNpe54T5A7_rmGW5pdE6-79" value="" style="endArrow=classic;startArrow=classic;html=1;strokeWidth=1;entryX=0;entryY=0.5;entryDx=0;entryDy=0;exitX=1;exitY=0.5;exitDx=0;exitDy=0;" parent="824z70k770UWUd_179WO-1" source="cNpe54T5A7_rmGW5pdE6-74" target="cNpe54T5A7_rmGW5pdE6-14" edge="1">
          <mxGeometry width="50" height="50" relative="1" as="geometry">
            <mxPoint x="60" y="790" as="sourcePoint" />
            <mxPoint x="110" y="740" as="targetPoint" />
          </mxGeometry>
        </mxCell>
        <mxCell id="cNpe54T5A7_rmGW5pdE6-80" value="" style="endArrow=classic;startArrow=classic;html=1;strokeWidth=1;entryX=0;entryY=0.5;entryDx=0;entryDy=0;exitX=1;exitY=0.5;exitDx=0;exitDy=0;" parent="824z70k770UWUd_179WO-1" source="cNpe54T5A7_rmGW5pdE6-76" target="cNpe54T5A7_rmGW5pdE6-68" edge="1">
          <mxGeometry width="50" height="50" relative="1" as="geometry">
            <mxPoint x="245.62000000000012" y="860" as="sourcePoint" />
            <mxPoint x="370" y="755" as="targetPoint" />
          </mxGeometry>
        </mxCell>
        <mxCell id="cNpe54T5A7_rmGW5pdE6-82" value="" style="endArrow=classic;startArrow=classic;html=1;strokeWidth=1;entryX=0;entryY=0.5;entryDx=0;entryDy=0;exitX=1;exitY=0.5;exitDx=0;exitDy=0;" parent="824z70k770UWUd_179WO-1" source="cNpe54T5A7_rmGW5pdE6-77" target="cNpe54T5A7_rmGW5pdE6-64" edge="1">
          <mxGeometry width="50" height="50" relative="1" as="geometry">
            <mxPoint x="200" y="1050" as="sourcePoint" />
            <mxPoint x="250" y="1000" as="targetPoint" />
          </mxGeometry>
        </mxCell>
        <mxCell id="oz7sHXWD4g-tN3nn8tb8-0" value="&lt;span style=&quot;font-size: 7px&quot;&gt;Expose nats service directly to the client (nats.ws):&lt;br&gt;1. The authentication for each connection&lt;br&gt;2.&amp;nbsp; The Server configuration may be applied carefully in order to manage different nats server client&lt;br&gt;&lt;/span&gt;" style="text;html=1;strokeColor=none;fillColor=none;align=left;verticalAlign=middle;whiteSpace=wrap;rounded=0;" parent="824z70k770UWUd_179WO-1" vertex="1">
          <mxGeometry x="205" y="344" width="245" height="55" as="geometry" />
        </mxCell>
      </root>
    </mxGraphModel>
  </diagram>
  <diagram id="25w19Wnx4u3gRCjz2JSm" name="socket.io push">
    <mxGraphModel dx="2317" dy="591" grid="1" gridSize="10" guides="1" tooltips="1" connect="1" arrows="1" fold="1" page="1" pageScale="1" pageWidth="827" pageHeight="1169" math="0" shadow="0">
      <root>
        <mxCell id="JyWK-7Jrgd1SPlFd9SQs-0" />
        <mxCell id="JyWK-7Jrgd1SPlFd9SQs-1" parent="JyWK-7Jrgd1SPlFd9SQs-0" />
        <mxCell id="2URoYBKe4ZTztrolfENb-0" value="" style="rounded=1;whiteSpace=wrap;html=1;" parent="JyWK-7Jrgd1SPlFd9SQs-1" vertex="1">
          <mxGeometry x="300" y="90" width="210" height="210" as="geometry" />
        </mxCell>
        <mxCell id="2URoYBKe4ZTztrolfENb-1" value="Node A" style="text;html=1;strokeColor=none;fillColor=none;align=center;verticalAlign=middle;whiteSpace=wrap;rounded=0;" parent="JyWK-7Jrgd1SPlFd9SQs-1" vertex="1">
          <mxGeometry x="360" y="100" width="60" height="30" as="geometry" />
        </mxCell>
        <mxCell id="2URoYBKe4ZTztrolfENb-2" value="" style="rounded=1;whiteSpace=wrap;html=1;arcSize=16;" parent="JyWK-7Jrgd1SPlFd9SQs-1" vertex="1">
          <mxGeometry x="300" y="370" width="210" height="210" as="geometry" />
        </mxCell>
        <mxCell id="2URoYBKe4ZTztrolfENb-3" value="Node B" style="text;html=1;strokeColor=none;fillColor=none;align=center;verticalAlign=middle;whiteSpace=wrap;rounded=0;" parent="JyWK-7Jrgd1SPlFd9SQs-1" vertex="1">
          <mxGeometry x="375" y="380" width="60" height="30" as="geometry" />
        </mxCell>
        <mxCell id="2URoYBKe4ZTztrolfENb-4" value="Redis" style="rounded=1;whiteSpace=wrap;html=1;" parent="JyWK-7Jrgd1SPlFd9SQs-1" vertex="1">
          <mxGeometry x="590" y="290" width="120" height="60" as="geometry" />
        </mxCell>
        <mxCell id="2URoYBKe4ZTztrolfENb-5" value="Adapter" style="rounded=0;whiteSpace=wrap;html=1;" parent="JyWK-7Jrgd1SPlFd9SQs-1" vertex="1">
          <mxGeometry x="450" y="150" width="50" height="30" as="geometry" />
        </mxCell>
        <mxCell id="2URoYBKe4ZTztrolfENb-6" value="Adapter" style="rounded=0;whiteSpace=wrap;html=1;" parent="JyWK-7Jrgd1SPlFd9SQs-1" vertex="1">
          <mxGeometry x="450" y="440" width="50" height="30" as="geometry" />
        </mxCell>
        <mxCell id="2URoYBKe4ZTztrolfENb-7" value="" style="endArrow=classic;startArrow=classic;html=1;entryX=1;entryY=0.5;entryDx=0;entryDy=0;exitX=0.5;exitY=0;exitDx=0;exitDy=0;" parent="JyWK-7Jrgd1SPlFd9SQs-1" source="2URoYBKe4ZTztrolfENb-4" target="2URoYBKe4ZTztrolfENb-5" edge="1">
          <mxGeometry width="50" height="50" relative="1" as="geometry">
            <mxPoint x="710" y="180" as="sourcePoint" />
            <mxPoint x="760" y="130" as="targetPoint" />
          </mxGeometry>
        </mxCell>
        <mxCell id="2URoYBKe4ZTztrolfENb-8" value="" style="endArrow=classic;startArrow=classic;html=1;entryX=1;entryY=0.5;entryDx=0;entryDy=0;exitX=0.5;exitY=1;exitDx=0;exitDy=0;" parent="JyWK-7Jrgd1SPlFd9SQs-1" source="2URoYBKe4ZTztrolfENb-4" edge="1">
          <mxGeometry width="50" height="50" relative="1" as="geometry">
            <mxPoint x="720" y="575" as="sourcePoint" />
            <mxPoint x="500" y="450" as="targetPoint" />
          </mxGeometry>
        </mxCell>
        <mxCell id="2URoYBKe4ZTztrolfENb-9" value="" style="endArrow=classic;html=1;" parent="JyWK-7Jrgd1SPlFd9SQs-1" edge="1">
          <mxGeometry width="50" height="50" relative="1" as="geometry">
            <mxPoint x="400" y="710" as="sourcePoint" />
            <mxPoint x="400" y="580" as="targetPoint" />
          </mxGeometry>
        </mxCell>
        <mxCell id="2URoYBKe4ZTztrolfENb-11" value="&lt;font style=&quot;font-size: 15px&quot;&gt;1. Publish message to Channel A&lt;/font&gt;" style="text;html=1;strokeColor=none;fillColor=none;align=center;verticalAlign=middle;whiteSpace=wrap;rounded=0;" parent="JyWK-7Jrgd1SPlFd9SQs-1" vertex="1">
          <mxGeometry x="402" y="640" width="258" height="30" as="geometry" />
        </mxCell>
        <mxCell id="2URoYBKe4ZTztrolfENb-12" value="Client A" style="rounded=1;whiteSpace=wrap;html=1;" parent="JyWK-7Jrgd1SPlFd9SQs-1" vertex="1">
          <mxGeometry x="-40" y="190" width="120" height="60" as="geometry" />
        </mxCell>
        <mxCell id="c7EcsJlo6gLviWiJxwEC-0" value="" style="endArrow=classic;html=1;entryX=-0.003;entryY=0.373;entryDx=0;entryDy=0;entryPerimeter=0;exitX=1;exitY=0.25;exitDx=0;exitDy=0;" parent="JyWK-7Jrgd1SPlFd9SQs-1" source="2URoYBKe4ZTztrolfENb-12" target="2URoYBKe4ZTztrolfENb-0" edge="1">
          <mxGeometry width="50" height="50" relative="1" as="geometry">
            <mxPoint x="120" y="220" as="sourcePoint" />
            <mxPoint x="120" y="140" as="targetPoint" />
            <Array as="points" />
          </mxGeometry>
        </mxCell>
        <mxCell id="c7EcsJlo6gLviWiJxwEC-1" value="Client connect with channel A:&lt;br&gt;Server side will join this connection in the channel A" style="text;html=1;strokeColor=none;fillColor=none;align=center;verticalAlign=middle;whiteSpace=wrap;rounded=0;" parent="JyWK-7Jrgd1SPlFd9SQs-1" vertex="1">
          <mxGeometry x="80" y="150" width="180" height="20" as="geometry" />
        </mxCell>
        <mxCell id="c7EcsJlo6gLviWiJxwEC-2" value="&lt;font style=&quot;font-size: 17px&quot;&gt;Golang server client version 1.x,&amp;nbsp; java client version only support 2.x &lt;br&gt;//JS is native option&lt;br&gt;&lt;br&gt;&lt;br&gt;Socket.io&amp;nbsp; have namespace natively,&amp;nbsp; socket.io have room which can be same concept compare with the channel.&lt;br&gt;&lt;br&gt;1.&amp;nbsp; Broadcast,&amp;nbsp; if one client failed to deliver message. Do we need handle?&lt;br&gt;&lt;br&gt;2.&amp;nbsp; Message been queued at&amp;nbsp; the send buffer,&amp;nbsp; and node restarted,&amp;nbsp; notification will lost.&lt;br&gt;Advantage:&amp;nbsp; clientA will reconnect to same node,&amp;nbsp; so the message queued at the sendbuffer server side will be redelivered.&amp;nbsp; (But some one do not want redeliver,&amp;nbsp; then need handle at client side)&lt;br&gt;&lt;br&gt;https://socket.io/docs/v3/broadcasting-events/&lt;br&gt;&lt;br&gt;3. Node balance:&lt;br&gt;https://socket.io/docs/v3/using-multiple-nodes/&lt;/font&gt;" style="text;html=1;strokeColor=none;fillColor=none;align=left;verticalAlign=middle;whiteSpace=wrap;rounded=0;" parent="JyWK-7Jrgd1SPlFd9SQs-1" vertex="1">
          <mxGeometry x="728" y="90" width="702" height="385" as="geometry" />
        </mxCell>
        <mxCell id="c7EcsJlo6gLviWiJxwEC-3" value="" style="endArrow=classic;html=1;entryX=1;entryY=0.75;entryDx=0;entryDy=0;exitX=0;exitY=0.5;exitDx=0;exitDy=0;" parent="JyWK-7Jrgd1SPlFd9SQs-1" source="2URoYBKe4ZTztrolfENb-0" target="2URoYBKe4ZTztrolfENb-12" edge="1">
          <mxGeometry width="50" height="50" relative="1" as="geometry">
            <mxPoint x="90" y="450" as="sourcePoint" />
            <mxPoint x="140" y="400" as="targetPoint" />
          </mxGeometry>
        </mxCell>
        <mxCell id="c7EcsJlo6gLviWiJxwEC-6" value="&lt;font style=&quot;font-size: 15px&quot;&gt;2&lt;/font&gt;" style="text;html=1;strokeColor=none;fillColor=none;align=center;verticalAlign=middle;whiteSpace=wrap;rounded=0;" parent="JyWK-7Jrgd1SPlFd9SQs-1" vertex="1">
          <mxGeometry x="530" y="390" width="140" height="30" as="geometry" />
        </mxCell>
        <mxCell id="c7EcsJlo6gLviWiJxwEC-7" value="&lt;font style=&quot;font-size: 15px&quot;&gt;2&lt;/font&gt;" style="text;html=1;strokeColor=none;fillColor=none;align=center;verticalAlign=middle;whiteSpace=wrap;rounded=0;" parent="JyWK-7Jrgd1SPlFd9SQs-1" vertex="1">
          <mxGeometry x="530" y="190" width="138" height="30" as="geometry" />
        </mxCell>
        <mxCell id="c7EcsJlo6gLviWiJxwEC-8" value="&lt;font style=&quot;font-size: 15px&quot;&gt;3&lt;/font&gt;" style="text;html=1;strokeColor=none;fillColor=none;align=center;verticalAlign=middle;whiteSpace=wrap;rounded=0;" parent="JyWK-7Jrgd1SPlFd9SQs-1" vertex="1">
          <mxGeometry x="120" y="240" width="40" as="geometry" />
        </mxCell>
      </root>
    </mxGraphModel>
  </diagram>
  <diagram id="NIE-UY6XJdgQcXugpvun" name="event service">
    <mxGraphModel dx="2377" dy="2013" grid="1" gridSize="10" guides="1" tooltips="1" connect="1" arrows="1" fold="1" page="1" pageScale="1" pageWidth="827" pageHeight="1169" math="0" shadow="0">
      <root>
        <mxCell id="B7N0aoRA9KuExFf851mD-0" />
        <mxCell id="B7N0aoRA9KuExFf851mD-1" parent="B7N0aoRA9KuExFf851mD-0" />
        <mxCell id="_MmokRNpDw1ZORBUkxqe-36" value="" style="rounded=1;whiteSpace=wrap;html=1;" parent="B7N0aoRA9KuExFf851mD-1" vertex="1">
          <mxGeometry x="160" y="60" width="580" height="760" as="geometry" />
        </mxCell>
        <mxCell id="W2yWTYOMFcJtYwTlFpxZ-0" value="" style="rounded=1;whiteSpace=wrap;html=1;" parent="B7N0aoRA9KuExFf851mD-1" vertex="1">
          <mxGeometry x="270" y="110" width="330" height="330" as="geometry" />
        </mxCell>
        <mxCell id="W2yWTYOMFcJtYwTlFpxZ-7" value="Client&lt;br&gt;have uniqueue connection" style="ellipse;whiteSpace=wrap;html=1;" parent="B7N0aoRA9KuExFf851mD-1" vertex="1">
          <mxGeometry x="890" y="150" width="200" height="100" as="geometry" />
        </mxCell>
        <mxCell id="W2yWTYOMFcJtYwTlFpxZ-17" value="" style="rounded=0;whiteSpace=wrap;html=1;fillColor=#ffe6cc;strokeColor=#d79b00;" parent="B7N0aoRA9KuExFf851mD-1" vertex="1">
          <mxGeometry x="400" y="140" width="120" height="150" as="geometry" />
        </mxCell>
        <mxCell id="W2yWTYOMFcJtYwTlFpxZ-6" value="Client {&lt;br&gt;connection&lt;br&gt;}" style="rounded=0;whiteSpace=wrap;html=1;fillColor=#d5e8d4;strokeColor=#82b366;" parent="B7N0aoRA9KuExFf851mD-1" vertex="1">
          <mxGeometry x="430" y="175" width="60" height="70" as="geometry" />
        </mxCell>
        <mxCell id="W2yWTYOMFcJtYwTlFpxZ-18" value="Channel A" style="text;html=1;strokeColor=none;fillColor=none;align=center;verticalAlign=middle;whiteSpace=wrap;rounded=0;" parent="B7N0aoRA9KuExFf851mD-1" vertex="1">
          <mxGeometry x="390" y="150" width="140" height="20" as="geometry" />
        </mxCell>
        <mxCell id="W2yWTYOMFcJtYwTlFpxZ-20" value="Channel" style="text;html=1;strokeColor=none;fillColor=none;align=center;verticalAlign=middle;whiteSpace=wrap;rounded=0;" parent="B7N0aoRA9KuExFf851mD-1" vertex="1">
          <mxGeometry x="390" y="360" width="140" height="20" as="geometry" />
        </mxCell>
        <mxCell id="_MmokRNpDw1ZORBUkxqe-0" value="Client" style="swimlane;fontStyle=0;childLayout=stackLayout;horizontal=1;startSize=26;horizontalStack=0;resizeParent=1;resizeParentMax=0;resizeLast=0;collapsible=1;marginBottom=0;fillColor=#d5e8d4;strokeColor=#82b366;" parent="B7N0aoRA9KuExFf851mD-1" vertex="1">
          <mxGeometry x="630" y="1070" width="140" height="78" as="geometry" />
        </mxCell>
        <mxCell id="_MmokRNpDw1ZORBUkxqe-1" value="ClientID" style="text;strokeColor=#82b366;fillColor=#d5e8d4;align=left;verticalAlign=top;spacingLeft=4;spacingRight=4;overflow=hidden;rotatable=0;points=[[0,0.5],[1,0.5]];portConstraint=eastwest;" parent="_MmokRNpDw1ZORBUkxqe-0" vertex="1">
          <mxGeometry y="26" width="140" height="26" as="geometry" />
        </mxCell>
        <mxCell id="_MmokRNpDw1ZORBUkxqe-2" value="Connection" style="text;strokeColor=#82b366;fillColor=#d5e8d4;align=left;verticalAlign=top;spacingLeft=4;spacingRight=4;overflow=hidden;rotatable=0;points=[[0,0.5],[1,0.5]];portConstraint=eastwest;" parent="_MmokRNpDw1ZORBUkxqe-0" vertex="1">
          <mxGeometry y="52" width="140" height="26" as="geometry" />
        </mxCell>
        <mxCell id="_MmokRNpDw1ZORBUkxqe-4" value="Channel" style="swimlane;fontStyle=0;childLayout=stackLayout;horizontal=1;startSize=26;horizontalStack=0;resizeParent=1;resizeParentMax=0;resizeLast=0;collapsible=1;marginBottom=0;fillColor=#ffe6cc;strokeColor=#d79b00;" parent="B7N0aoRA9KuExFf851mD-1" vertex="1">
          <mxGeometry x="300" y="1102" width="140" height="104" as="geometry" />
        </mxCell>
        <mxCell id="_MmokRNpDw1ZORBUkxqe-5" value="Channel name/ID" style="text;strokeColor=#d79b00;fillColor=#ffe6cc;align=left;verticalAlign=top;spacingLeft=4;spacingRight=4;overflow=hidden;rotatable=0;points=[[0,0.5],[1,0.5]];portConstraint=eastwest;" parent="_MmokRNpDw1ZORBUkxqe-4" vertex="1">
          <mxGeometry y="26" width="140" height="26" as="geometry" />
        </mxCell>
        <mxCell id="_MmokRNpDw1ZORBUkxqe-6" value="ClientID list" style="text;strokeColor=#d79b00;fillColor=#ffe6cc;align=left;verticalAlign=top;spacingLeft=4;spacingRight=4;overflow=hidden;rotatable=0;points=[[0,0.5],[1,0.5]];portConstraint=eastwest;" parent="_MmokRNpDw1ZORBUkxqe-4" vertex="1">
          <mxGeometry y="52" width="140" height="26" as="geometry" />
        </mxCell>
        <mxCell id="_MmokRNpDw1ZORBUkxqe-7" value="Channel config&#xa;" style="text;strokeColor=#d79b00;fillColor=#ffe6cc;align=left;verticalAlign=top;spacingLeft=4;spacingRight=4;overflow=hidden;rotatable=0;points=[[0,0.5],[1,0.5]];portConstraint=eastwest;" parent="_MmokRNpDw1ZORBUkxqe-4" vertex="1">
          <mxGeometry y="78" width="140" height="26" as="geometry" />
        </mxCell>
        <mxCell id="_MmokRNpDw1ZORBUkxqe-8" value="Client" style="swimlane;fontStyle=0;childLayout=stackLayout;horizontal=1;startSize=26;horizontalStack=0;resizeParent=1;resizeParentMax=0;resizeLast=0;collapsible=1;marginBottom=0;fillColor=#d5e8d4;strokeColor=#82b366;" parent="B7N0aoRA9KuExFf851mD-1" vertex="1">
          <mxGeometry x="630" y="1206" width="140" height="78" as="geometry" />
        </mxCell>
        <mxCell id="_MmokRNpDw1ZORBUkxqe-9" value="ClientID" style="text;strokeColor=#82b366;fillColor=#d5e8d4;align=left;verticalAlign=top;spacingLeft=4;spacingRight=4;overflow=hidden;rotatable=0;points=[[0,0.5],[1,0.5]];portConstraint=eastwest;" parent="_MmokRNpDw1ZORBUkxqe-8" vertex="1">
          <mxGeometry y="26" width="140" height="26" as="geometry" />
        </mxCell>
        <mxCell id="_MmokRNpDw1ZORBUkxqe-10" value="Connection" style="text;strokeColor=#82b366;fillColor=#d5e8d4;align=left;verticalAlign=top;spacingLeft=4;spacingRight=4;overflow=hidden;rotatable=0;points=[[0,0.5],[1,0.5]];portConstraint=eastwest;" parent="_MmokRNpDw1ZORBUkxqe-8" vertex="1">
          <mxGeometry y="52" width="140" height="26" as="geometry" />
        </mxCell>
        <mxCell id="_MmokRNpDw1ZORBUkxqe-11" value="Channel config" style="swimlane;fontStyle=0;childLayout=stackLayout;horizontal=1;startSize=26;horizontalStack=0;resizeParent=1;resizeParentMax=0;resizeLast=0;collapsible=1;marginBottom=0;fillColor=#ffe6cc;strokeColor=#d79b00;" parent="B7N0aoRA9KuExFf851mD-1" vertex="1">
          <mxGeometry x="540" y="1408" width="140" height="104" as="geometry">
            <mxRectangle x="550" y="1480" width="110" height="26" as="alternateBounds" />
          </mxGeometry>
        </mxCell>
        <mxCell id="_MmokRNpDw1ZORBUkxqe-12" value="config name" style="text;strokeColor=#d79b00;fillColor=#ffe6cc;align=left;verticalAlign=top;spacingLeft=4;spacingRight=4;overflow=hidden;rotatable=0;points=[[0,0.5],[1,0.5]];portConstraint=eastwest;" parent="_MmokRNpDw1ZORBUkxqe-11" vertex="1">
          <mxGeometry y="26" width="140" height="26" as="geometry" />
        </mxCell>
        <mxCell id="_MmokRNpDw1ZORBUkxqe-13" value="Memory persis time" style="text;strokeColor=#d79b00;fillColor=#ffe6cc;align=left;verticalAlign=top;spacingLeft=4;spacingRight=4;overflow=hidden;rotatable=0;points=[[0,0.5],[1,0.5]];portConstraint=eastwest;" parent="_MmokRNpDw1ZORBUkxqe-11" vertex="1">
          <mxGeometry y="52" width="140" height="26" as="geometry" />
        </mxCell>
        <mxCell id="_MmokRNpDw1ZORBUkxqe-14" value="Disk persist time&#xa;" style="text;strokeColor=#d79b00;fillColor=#ffe6cc;align=left;verticalAlign=top;spacingLeft=4;spacingRight=4;overflow=hidden;rotatable=0;points=[[0,0.5],[1,0.5]];portConstraint=eastwest;" parent="_MmokRNpDw1ZORBUkxqe-11" vertex="1">
          <mxGeometry y="78" width="140" height="26" as="geometry" />
        </mxCell>
        <mxCell id="_MmokRNpDw1ZORBUkxqe-15" value="Namespace" style="swimlane;fontStyle=0;childLayout=stackLayout;horizontal=1;startSize=26;horizontalStack=0;resizeParent=1;resizeParentMax=0;resizeLast=0;collapsible=1;marginBottom=0;fillColor=#ffe6cc;strokeColor=#d79b00;" parent="B7N0aoRA9KuExFf851mD-1" vertex="1">
          <mxGeometry x="40" y="1138" width="140" height="78" as="geometry" />
        </mxCell>
        <mxCell id="_MmokRNpDw1ZORBUkxqe-16" value="Name" style="text;strokeColor=#d79b00;fillColor=#ffe6cc;align=left;verticalAlign=top;spacingLeft=4;spacingRight=4;overflow=hidden;rotatable=0;points=[[0,0.5],[1,0.5]];portConstraint=eastwest;" parent="_MmokRNpDw1ZORBUkxqe-15" vertex="1">
          <mxGeometry y="26" width="140" height="26" as="geometry" />
        </mxCell>
        <mxCell id="_MmokRNpDw1ZORBUkxqe-17" value="Channel list" style="text;strokeColor=#d79b00;fillColor=#ffe6cc;align=left;verticalAlign=top;spacingLeft=4;spacingRight=4;overflow=hidden;rotatable=0;points=[[0,0.5],[1,0.5]];portConstraint=eastwest;" parent="_MmokRNpDw1ZORBUkxqe-15" vertex="1">
          <mxGeometry y="52" width="140" height="26" as="geometry" />
        </mxCell>
        <mxCell id="_MmokRNpDw1ZORBUkxqe-19" value="Channel" style="swimlane;fontStyle=0;childLayout=stackLayout;horizontal=1;startSize=26;horizontalStack=0;resizeParent=1;resizeParentMax=0;resizeLast=0;collapsible=1;marginBottom=0;fillColor=#ffe6cc;strokeColor=#d79b00;" parent="B7N0aoRA9KuExFf851mD-1" vertex="1">
          <mxGeometry x="300" y="1252" width="140" height="104" as="geometry" />
        </mxCell>
        <mxCell id="_MmokRNpDw1ZORBUkxqe-20" value="Channel name/ID" style="text;strokeColor=#d79b00;fillColor=#ffe6cc;align=left;verticalAlign=top;spacingLeft=4;spacingRight=4;overflow=hidden;rotatable=0;points=[[0,0.5],[1,0.5]];portConstraint=eastwest;" parent="_MmokRNpDw1ZORBUkxqe-19" vertex="1">
          <mxGeometry y="26" width="140" height="26" as="geometry" />
        </mxCell>
        <mxCell id="_MmokRNpDw1ZORBUkxqe-21" value="ClientID list" style="text;strokeColor=#d79b00;fillColor=#ffe6cc;align=left;verticalAlign=top;spacingLeft=4;spacingRight=4;overflow=hidden;rotatable=0;points=[[0,0.5],[1,0.5]];portConstraint=eastwest;" parent="_MmokRNpDw1ZORBUkxqe-19" vertex="1">
          <mxGeometry y="52" width="140" height="26" as="geometry" />
        </mxCell>
        <mxCell id="_MmokRNpDw1ZORBUkxqe-22" value="Channel config&#xa;" style="text;strokeColor=#d79b00;fillColor=#ffe6cc;align=left;verticalAlign=top;spacingLeft=4;spacingRight=4;overflow=hidden;rotatable=0;points=[[0,0.5],[1,0.5]];portConstraint=eastwest;" parent="_MmokRNpDw1ZORBUkxqe-19" vertex="1">
          <mxGeometry y="78" width="140" height="26" as="geometry" />
        </mxCell>
        <mxCell id="_MmokRNpDw1ZORBUkxqe-23" value="" style="endArrow=classic;startArrow=classic;html=1;exitX=1;exitY=0.5;exitDx=0;exitDy=0;entryX=0;entryY=0.5;entryDx=0;entryDy=0;" parent="B7N0aoRA9KuExFf851mD-1" source="_MmokRNpDw1ZORBUkxqe-17" target="_MmokRNpDw1ZORBUkxqe-5" edge="1">
          <mxGeometry width="50" height="50" relative="1" as="geometry">
            <mxPoint x="260" y="1182" as="sourcePoint" />
            <mxPoint x="310" y="1132" as="targetPoint" />
          </mxGeometry>
        </mxCell>
        <mxCell id="_MmokRNpDw1ZORBUkxqe-24" value="" style="endArrow=classic;startArrow=classic;html=1;exitX=1;exitY=0.5;exitDx=0;exitDy=0;entryX=0;entryY=0.5;entryDx=0;entryDy=0;" parent="B7N0aoRA9KuExFf851mD-1" source="_MmokRNpDw1ZORBUkxqe-17" target="_MmokRNpDw1ZORBUkxqe-20" edge="1">
          <mxGeometry width="50" height="50" relative="1" as="geometry">
            <mxPoint x="119.99999999999977" y="1203" as="sourcePoint" />
            <mxPoint x="309.9999999999998" y="1177" as="targetPoint" />
          </mxGeometry>
        </mxCell>
        <mxCell id="_MmokRNpDw1ZORBUkxqe-25" value="" style="endArrow=classic;startArrow=classic;html=1;exitX=1;exitY=0.692;exitDx=0;exitDy=0;exitPerimeter=0;entryX=0;entryY=0.5;entryDx=0;entryDy=0;" parent="B7N0aoRA9KuExFf851mD-1" source="_MmokRNpDw1ZORBUkxqe-6" target="_MmokRNpDw1ZORBUkxqe-1" edge="1">
          <mxGeometry width="50" height="50" relative="1" as="geometry">
            <mxPoint x="590" y="1002" as="sourcePoint" />
            <mxPoint x="640" y="952" as="targetPoint" />
          </mxGeometry>
        </mxCell>
        <mxCell id="_MmokRNpDw1ZORBUkxqe-26" value="" style="endArrow=classic;startArrow=classic;html=1;exitX=1.016;exitY=-0.172;exitDx=0;exitDy=0;exitPerimeter=0;entryX=0;entryY=0.5;entryDx=0;entryDy=0;" parent="B7N0aoRA9KuExFf851mD-1" source="_MmokRNpDw1ZORBUkxqe-7" target="_MmokRNpDw1ZORBUkxqe-9" edge="1">
          <mxGeometry width="50" height="50" relative="1" as="geometry">
            <mxPoint x="449.9999999999998" y="1181.9920000000002" as="sourcePoint" />
            <mxPoint x="620" y="1109" as="targetPoint" />
          </mxGeometry>
        </mxCell>
        <mxCell id="_MmokRNpDw1ZORBUkxqe-27" value="" style="endArrow=classic;startArrow=classic;html=1;entryX=0;entryY=0.5;entryDx=0;entryDy=0;exitX=1;exitY=0.5;exitDx=0;exitDy=0;" parent="B7N0aoRA9KuExFf851mD-1" source="_MmokRNpDw1ZORBUkxqe-7" target="_MmokRNpDw1ZORBUkxqe-12" edge="1">
          <mxGeometry width="50" height="50" relative="1" as="geometry">
            <mxPoint x="390" y="1462" as="sourcePoint" />
            <mxPoint x="440" y="1412" as="targetPoint" />
            <Array as="points">
              <mxPoint x="520" y="1232" />
              <mxPoint x="500" y="1422" />
            </Array>
          </mxGeometry>
        </mxCell>
        <mxCell id="_MmokRNpDw1ZORBUkxqe-28" value="Persist last message" style="text;strokeColor=#d79b00;fillColor=#ffe6cc;align=left;verticalAlign=top;spacingLeft=4;spacingRight=4;overflow=hidden;rotatable=0;points=[[0,0.5],[1,0.5]];portConstraint=eastwest;" parent="B7N0aoRA9KuExFf851mD-1" vertex="1">
          <mxGeometry x="540" y="1512" width="140" height="26" as="geometry" />
        </mxCell>
        <mxCell id="_MmokRNpDw1ZORBUkxqe-29" value="" style="rounded=1;whiteSpace=wrap;html=1;" parent="B7N0aoRA9KuExFf851mD-1" vertex="1">
          <mxGeometry x="270" y="470" width="330" height="310" as="geometry" />
        </mxCell>
        <mxCell id="_MmokRNpDw1ZORBUkxqe-30" value="" style="rounded=0;whiteSpace=wrap;html=1;fillColor=#ffe6cc;strokeColor=#d79b00;" parent="B7N0aoRA9KuExFf851mD-1" vertex="1">
          <mxGeometry x="410" y="490" width="120" height="130" as="geometry" />
        </mxCell>
        <mxCell id="_MmokRNpDw1ZORBUkxqe-32" value="Channel A" style="text;html=1;strokeColor=none;fillColor=none;align=center;verticalAlign=middle;whiteSpace=wrap;rounded=0;" parent="B7N0aoRA9KuExFf851mD-1" vertex="1">
          <mxGeometry x="390" y="500" width="140" height="20" as="geometry" />
        </mxCell>
        <mxCell id="_MmokRNpDw1ZORBUkxqe-33" value="Channel" style="text;html=1;strokeColor=none;fillColor=none;align=center;verticalAlign=middle;whiteSpace=wrap;rounded=0;" parent="B7N0aoRA9KuExFf851mD-1" vertex="1">
          <mxGeometry x="390" y="730" width="140" height="20" as="geometry" />
        </mxCell>
        <mxCell id="_MmokRNpDw1ZORBUkxqe-34" value="" style="endArrow=classic;html=1;entryX=0.5;entryY=1;entryDx=0;entryDy=0;" parent="B7N0aoRA9KuExFf851mD-1" target="_MmokRNpDw1ZORBUkxqe-29" edge="1">
          <mxGeometry width="50" height="50" relative="1" as="geometry">
            <mxPoint x="435" y="960" as="sourcePoint" />
            <mxPoint x="460" y="910" as="targetPoint" />
          </mxGeometry>
        </mxCell>
        <mxCell id="_MmokRNpDw1ZORBUkxqe-35" value="&lt;font style=&quot;font-size: 23px&quot;&gt;1. Publish message to channel A&lt;/font&gt;" style="text;html=1;strokeColor=none;fillColor=none;align=left;verticalAlign=middle;whiteSpace=wrap;rounded=0;" parent="B7N0aoRA9KuExFf851mD-1" vertex="1">
          <mxGeometry x="440" y="870" width="400" height="20" as="geometry" />
        </mxCell>
        <mxCell id="_MmokRNpDw1ZORBUkxqe-37" value="Event publish service" style="text;html=1;strokeColor=none;fillColor=none;align=center;verticalAlign=middle;whiteSpace=wrap;rounded=0;" parent="B7N0aoRA9KuExFf851mD-1" vertex="1">
          <mxGeometry x="360" y="70" width="180" height="20" as="geometry" />
        </mxCell>
        <mxCell id="_MmokRNpDw1ZORBUkxqe-38" value="Redis queue" style="rounded=1;whiteSpace=wrap;html=1;" parent="B7N0aoRA9KuExFf851mD-1" vertex="1">
          <mxGeometry x="355" y="-260" width="190" height="90" as="geometry" />
        </mxCell>
        <mxCell id="_MmokRNpDw1ZORBUkxqe-39" value="" style="endArrow=classic;html=1;exitX=0.454;exitY=-0.001;exitDx=0;exitDy=0;exitPerimeter=0;entryX=0.364;entryY=0.991;entryDx=0;entryDy=0;entryPerimeter=0;" parent="B7N0aoRA9KuExFf851mD-1" source="_MmokRNpDw1ZORBUkxqe-36" target="_MmokRNpDw1ZORBUkxqe-38" edge="1">
          <mxGeometry width="50" height="50" relative="1" as="geometry">
            <mxPoint x="430" y="20" as="sourcePoint" />
            <mxPoint x="425" y="-168" as="targetPoint" />
          </mxGeometry>
        </mxCell>
        <mxCell id="_MmokRNpDw1ZORBUkxqe-40" value="Node A" style="text;html=1;strokeColor=none;fillColor=none;align=center;verticalAlign=middle;whiteSpace=wrap;rounded=0;" parent="B7N0aoRA9KuExFf851mD-1" vertex="1">
          <mxGeometry x="300" y="250" width="80" height="20" as="geometry" />
        </mxCell>
        <mxCell id="_MmokRNpDw1ZORBUkxqe-41" value="Node B" style="text;html=1;strokeColor=none;fillColor=none;align=center;verticalAlign=middle;whiteSpace=wrap;rounded=0;" parent="B7N0aoRA9KuExFf851mD-1" vertex="1">
          <mxGeometry x="300" y="610" width="80" height="20" as="geometry" />
        </mxCell>
        <mxCell id="_MmokRNpDw1ZORBUkxqe-42" value="" style="endArrow=classic;html=1;exitX=0.5;exitY=1;exitDx=0;exitDy=0;entryX=0.5;entryY=0;entryDx=0;entryDy=0;" parent="B7N0aoRA9KuExFf851mD-1" source="_MmokRNpDw1ZORBUkxqe-38" target="_MmokRNpDw1ZORBUkxqe-36" edge="1">
          <mxGeometry width="50" height="50" relative="1" as="geometry">
            <mxPoint x="670.1600000000001" y="23.950000000000045" as="sourcePoint" />
            <mxPoint x="480" y="40" as="targetPoint" />
          </mxGeometry>
        </mxCell>
        <mxCell id="_MmokRNpDw1ZORBUkxqe-43" value="NATS server" style="rounded=1;whiteSpace=wrap;html=1;" parent="B7N0aoRA9KuExFf851mD-1" vertex="1">
          <mxGeometry x="-230" y="310" width="200" height="190" as="geometry" />
        </mxCell>
        <mxCell id="_MmokRNpDw1ZORBUkxqe-44" value="" style="endArrow=classic;html=1;exitX=0;exitY=0.5;exitDx=0;exitDy=0;entryX=0.5;entryY=1;entryDx=0;entryDy=0;" parent="B7N0aoRA9KuExFf851mD-1" source="_MmokRNpDw1ZORBUkxqe-29" target="_MmokRNpDw1ZORBUkxqe-43" edge="1">
          <mxGeometry width="50" height="50" relative="1" as="geometry">
            <mxPoint x="-90" y="680" as="sourcePoint" />
            <mxPoint x="-40" y="630" as="targetPoint" />
            <Array as="points">
              <mxPoint x="-130" y="625" />
            </Array>
          </mxGeometry>
        </mxCell>
        <mxCell id="_MmokRNpDw1ZORBUkxqe-45" value="&lt;span style=&quot;font-size: 23px&quot;&gt;2. publish MSG to NATS&lt;/span&gt;" style="text;html=1;strokeColor=none;fillColor=none;align=left;verticalAlign=middle;whiteSpace=wrap;rounded=0;" parent="B7N0aoRA9KuExFf851mD-1" vertex="1">
          <mxGeometry x="-120" y="560" width="400" height="20" as="geometry" />
        </mxCell>
        <mxCell id="_MmokRNpDw1ZORBUkxqe-46" value="" style="endArrow=classic;html=1;entryX=0;entryY=0.5;entryDx=0;entryDy=0;exitX=1;exitY=0.5;exitDx=0;exitDy=0;" parent="B7N0aoRA9KuExFf851mD-1" source="_MmokRNpDw1ZORBUkxqe-43" target="W2yWTYOMFcJtYwTlFpxZ-0" edge="1">
          <mxGeometry width="50" height="50" relative="1" as="geometry">
            <mxPoint x="20" y="380" as="sourcePoint" />
            <mxPoint x="70" y="330" as="targetPoint" />
          </mxGeometry>
        </mxCell>
        <mxCell id="_MmokRNpDw1ZORBUkxqe-47" value="" style="endArrow=classic;html=1;entryX=0;entryY=0.25;entryDx=0;entryDy=0;exitX=1;exitY=0.5;exitDx=0;exitDy=0;" parent="B7N0aoRA9KuExFf851mD-1" source="_MmokRNpDw1ZORBUkxqe-43" target="_MmokRNpDw1ZORBUkxqe-29" edge="1">
          <mxGeometry width="50" height="50" relative="1" as="geometry">
            <mxPoint x="-20" y="415" as="sourcePoint" />
            <mxPoint x="280" y="285" as="targetPoint" />
          </mxGeometry>
        </mxCell>
        <mxCell id="_MmokRNpDw1ZORBUkxqe-48" value="&lt;span style=&quot;font-size: 23px&quot;&gt;3. Dispatch msg to&amp;nbsp;&lt;br&gt;&amp;nbsp; &amp;nbsp; each node&lt;br&gt;&lt;/span&gt;" style="text;html=1;strokeColor=none;fillColor=none;align=left;verticalAlign=middle;whiteSpace=wrap;rounded=0;" parent="B7N0aoRA9KuExFf851mD-1" vertex="1">
          <mxGeometry x="-20" y="370" width="400" height="20" as="geometry" />
        </mxCell>
        <mxCell id="_MmokRNpDw1ZORBUkxqe-50" value="&lt;span style=&quot;font-size: 23px&quot;&gt;5. Queue MSG to distribute queue&lt;/span&gt;" style="text;html=1;strokeColor=none;fillColor=none;align=left;verticalAlign=middle;whiteSpace=wrap;rounded=0;" parent="B7N0aoRA9KuExFf851mD-1" vertex="1">
          <mxGeometry x="254" y="-130" width="160" height="150" as="geometry" />
        </mxCell>
        <mxCell id="_MmokRNpDw1ZORBUkxqe-51" value="State for each client" style="text;strokeColor=#d79b00;fillColor=#ffe6cc;align=left;verticalAlign=top;spacingLeft=4;spacingRight=4;overflow=hidden;rotatable=0;points=[[0,0.5],[1,0.5]];portConstraint=eastwest;" parent="B7N0aoRA9KuExFf851mD-1" vertex="1">
          <mxGeometry x="300" y="1206" width="140" height="26" as="geometry" />
        </mxCell>
        <mxCell id="_MmokRNpDw1ZORBUkxqe-52" value="State for each client" style="text;strokeColor=#d79b00;fillColor=#ffe6cc;align=left;verticalAlign=top;spacingLeft=4;spacingRight=4;overflow=hidden;rotatable=0;points=[[0,0.5],[1,0.5]];portConstraint=eastwest;" parent="B7N0aoRA9KuExFf851mD-1" vertex="1">
          <mxGeometry x="300" y="1356" width="140" height="26" as="geometry" />
        </mxCell>
        <mxCell id="_MmokRNpDw1ZORBUkxqe-54" value="&lt;span style=&quot;font-size: 23px&quot;&gt;4.&amp;nbsp; &lt;br&gt;&lt;/span&gt;&lt;span style=&quot;font-size: 23px&quot;&gt;(1).check all clients for this channel,&amp;nbsp; if have active memory client attached,&amp;nbsp; (2).send this messagge out&lt;/span&gt;&lt;span style=&quot;font-size: 23px&quot;&gt;&lt;br&gt;&lt;/span&gt;&lt;span style=&quot;font-size: 23px&quot;&gt;(3).Do not have memory client attached,&amp;nbsp; this client state is active, do nothing&lt;/span&gt;&lt;span style=&quot;font-size: 23px&quot;&gt;&lt;br&gt;&lt;/span&gt;&lt;span style=&quot;font-size: 23px&quot;&gt;The client state is inactive, queue this message in queue with message id&lt;/span&gt;&lt;span style=&quot;font-size: 23px&quot;&gt;&lt;br&gt;&lt;/span&gt;" style="text;html=1;strokeColor=none;fillColor=none;align=left;verticalAlign=middle;whiteSpace=wrap;rounded=0;" parent="B7N0aoRA9KuExFf851mD-1" vertex="1">
          <mxGeometry x="510" y="320" width="790" height="80" as="geometry" />
        </mxCell>
        <mxCell id="_MmokRNpDw1ZORBUkxqe-57" value="a.&amp;nbsp; connection created:&lt;br&gt;create channel and client data server side" style="text;html=1;strokeColor=none;fillColor=none;align=center;verticalAlign=middle;whiteSpace=wrap;rounded=0;" parent="B7N0aoRA9KuExFf851mD-1" vertex="1">
          <mxGeometry x="650" y="140" width="200" height="50" as="geometry" />
        </mxCell>
        <mxCell id="_MmokRNpDw1ZORBUkxqe-58" value="" style="verticalLabelPosition=bottom;verticalAlign=top;html=1;shape=mxgraph.flowchart.or;" parent="B7N0aoRA9KuExFf851mD-1" vertex="1">
          <mxGeometry x="620" y="235" width="40" height="30" as="geometry" />
        </mxCell>
        <mxCell id="_MmokRNpDw1ZORBUkxqe-60" value="" style="endArrow=classic;startArrow=classic;html=1;entryX=0;entryY=0.5;entryDx=0;entryDy=0;exitX=1;exitY=0.25;exitDx=0;exitDy=0;" parent="B7N0aoRA9KuExFf851mD-1" source="W2yWTYOMFcJtYwTlFpxZ-0" target="W2yWTYOMFcJtYwTlFpxZ-7" edge="1">
          <mxGeometry width="50" height="50" relative="1" as="geometry">
            <mxPoint x="900" y="90" as="sourcePoint" />
            <mxPoint x="860" y="50" as="targetPoint" />
          </mxGeometry>
        </mxCell>
        <mxCell id="_MmokRNpDw1ZORBUkxqe-61" value="" style="endArrow=classic;startArrow=classic;html=1;entryX=0.024;entryY=0.711;entryDx=0;entryDy=0;entryPerimeter=0;dashed=1;" parent="B7N0aoRA9KuExFf851mD-1" source="W2yWTYOMFcJtYwTlFpxZ-0" target="W2yWTYOMFcJtYwTlFpxZ-7" edge="1">
          <mxGeometry width="50" height="50" relative="1" as="geometry">
            <mxPoint x="830" y="310" as="sourcePoint" />
            <mxPoint x="880" y="260" as="targetPoint" />
          </mxGeometry>
        </mxCell>
        <mxCell id="_MmokRNpDw1ZORBUkxqe-62" value="a.&amp;nbsp; connection disconnected:&lt;br&gt;clean up client data,&amp;nbsp; and set client state to inactive" style="text;html=1;strokeColor=none;fillColor=none;align=center;verticalAlign=middle;whiteSpace=wrap;rounded=0;" parent="B7N0aoRA9KuExFf851mD-1" vertex="1">
          <mxGeometry x="660" y="235" width="200" height="50" as="geometry" />
        </mxCell>
        <mxCell id="_MmokRNpDw1ZORBUkxqe-63" value="Channel config" style="text;strokeColor=#d79b00;fillColor=#ffe6cc;align=left;verticalAlign=top;spacingLeft=4;spacingRight=4;overflow=hidden;rotatable=0;points=[[0,0.5],[1,0.5]];portConstraint=eastwest;" parent="B7N0aoRA9KuExFf851mD-1" vertex="1">
          <mxGeometry x="40" y="1216" width="140" height="26" as="geometry" />
        </mxCell>
        <mxCell id="_MmokRNpDw1ZORBUkxqe-64" value="" style="endArrow=classic;startArrow=classic;html=1;entryX=0;entryY=0.5;entryDx=0;entryDy=0;exitX=-0.008;exitY=0.7;exitDx=0;exitDy=0;exitPerimeter=0;" parent="B7N0aoRA9KuExFf851mD-1" source="_MmokRNpDw1ZORBUkxqe-12" target="_MmokRNpDw1ZORBUkxqe-63" edge="1">
          <mxGeometry width="50" height="50" relative="1" as="geometry">
            <mxPoint x="-20" y="1462" as="sourcePoint" />
            <mxPoint x="30" y="1412" as="targetPoint" />
            <Array as="points">
              <mxPoint x="-40" y="1452" />
              <mxPoint x="-40" y="1229" />
            </Array>
          </mxGeometry>
        </mxCell>
        <mxCell id="CeQB6MypwYaNufHZhHNP-0" value="Text" style="text;html=1;strokeColor=none;fillColor=none;align=center;verticalAlign=middle;whiteSpace=wrap;rounded=0;" parent="B7N0aoRA9KuExFf851mD-1" vertex="1">
          <mxGeometry x="410" y="360" width="40" height="20" as="geometry" />
        </mxCell>
        <mxCell id="gGaIG061KzgzrlYbOBeM-0" value="" style="rounded=1;whiteSpace=wrap;html=1;fillColor=#E6E6E6;" parent="B7N0aoRA9KuExFf851mD-1" vertex="1">
          <mxGeometry x="120" y="-1030" width="640" height="270" as="geometry" />
        </mxCell>
        <mxCell id="gGaIG061KzgzrlYbOBeM-1" value="Eventing&lt;br&gt;service" style="rounded=1;whiteSpace=wrap;html=1;strokeColor=#FFB366;fillColor=#FFCC99;" parent="B7N0aoRA9KuExFf851mD-1" vertex="1">
          <mxGeometry x="160" y="-860" width="120" height="60" as="geometry" />
        </mxCell>
        <mxCell id="gGaIG061KzgzrlYbOBeM-2" value="&lt;span&gt;Eventing&lt;/span&gt;&lt;br&gt;&lt;span&gt;service&lt;/span&gt;" style="rounded=1;whiteSpace=wrap;html=1;strokeColor=#FFB366;fillColor=#FFCC99;" parent="B7N0aoRA9KuExFf851mD-1" vertex="1">
          <mxGeometry x="380" y="-860" width="120" height="60" as="geometry" />
        </mxCell>
        <mxCell id="gGaIG061KzgzrlYbOBeM-3" value="&lt;span&gt;Eventing&lt;/span&gt;&lt;br&gt;&lt;span&gt;service&lt;/span&gt;" style="rounded=1;whiteSpace=wrap;html=1;strokeColor=#FFB366;fillColor=#FFCC99;" parent="B7N0aoRA9KuExFf851mD-1" vertex="1">
          <mxGeometry x="600" y="-860" width="120" height="60" as="geometry" />
        </mxCell>
        <mxCell id="gGaIG061KzgzrlYbOBeM-4" value="Broker" style="rounded=1;whiteSpace=wrap;html=1;strokeColor=#FFB366;fillColor=#FFCC99;" parent="B7N0aoRA9KuExFf851mD-1" vertex="1">
          <mxGeometry x="380" y="-1000" width="120" height="60" as="geometry" />
        </mxCell>
        <mxCell id="gGaIG061KzgzrlYbOBeM-5" value="" style="endArrow=classic;startArrow=classic;html=1;entryX=0;entryY=1;entryDx=0;entryDy=0;exitX=0.5;exitY=0;exitDx=0;exitDy=0;" parent="B7N0aoRA9KuExFf851mD-1" source="gGaIG061KzgzrlYbOBeM-1" target="gGaIG061KzgzrlYbOBeM-4" edge="1">
          <mxGeometry width="50" height="50" relative="1" as="geometry">
            <mxPoint x="30" y="-640" as="sourcePoint" />
            <mxPoint x="80" y="-690" as="targetPoint" />
          </mxGeometry>
        </mxCell>
        <mxCell id="gGaIG061KzgzrlYbOBeM-6" value="" style="endArrow=classic;startArrow=classic;html=1;" parent="B7N0aoRA9KuExFf851mD-1" source="gGaIG061KzgzrlYbOBeM-2" edge="1">
          <mxGeometry width="50" height="50" relative="1" as="geometry">
            <mxPoint x="230" y="-850" as="sourcePoint" />
            <mxPoint x="450" y="-940" as="targetPoint" />
          </mxGeometry>
        </mxCell>
        <mxCell id="gGaIG061KzgzrlYbOBeM-7" value="" style="endArrow=classic;startArrow=classic;html=1;entryX=1;entryY=1;entryDx=0;entryDy=0;exitX=0.5;exitY=0;exitDx=0;exitDy=0;" parent="B7N0aoRA9KuExFf851mD-1" source="gGaIG061KzgzrlYbOBeM-3" target="gGaIG061KzgzrlYbOBeM-4" edge="1">
          <mxGeometry width="50" height="50" relative="1" as="geometry">
            <mxPoint x="240" y="-840" as="sourcePoint" />
            <mxPoint x="400" y="-920.0000000000001" as="targetPoint" />
          </mxGeometry>
        </mxCell>
        <mxCell id="gGaIG061KzgzrlYbOBeM-8" value="Client A" style="ellipse;whiteSpace=wrap;html=1;strokeColor=#E1D5E7;fillColor=#E6E6E6;" parent="B7N0aoRA9KuExFf851mD-1" vertex="1">
          <mxGeometry x="-140" y="-664" width="200" height="80" as="geometry" />
        </mxCell>
        <mxCell id="gGaIG061KzgzrlYbOBeM-9" value="Client B" style="ellipse;whiteSpace=wrap;html=1;strokeColor=#E1D5E7;fillColor=#E6E6E6;" parent="B7N0aoRA9KuExFf851mD-1" vertex="1">
          <mxGeometry x="860" y="-664" width="200" height="80" as="geometry" />
        </mxCell>
        <mxCell id="gGaIG061KzgzrlYbOBeM-10" value="" style="endArrow=classic;html=1;entryX=0;entryY=0.75;entryDx=0;entryDy=0;exitX=0.5;exitY=0;exitDx=0;exitDy=0;" parent="B7N0aoRA9KuExFf851mD-1" source="gGaIG061KzgzrlYbOBeM-8" target="gGaIG061KzgzrlYbOBeM-0" edge="1">
          <mxGeometry width="50" height="50" relative="1" as="geometry">
            <mxPoint x="-190" y="-640" as="sourcePoint" />
            <mxPoint x="-140" y="-690" as="targetPoint" />
          </mxGeometry>
        </mxCell>
        <mxCell id="gGaIG061KzgzrlYbOBeM-11" value="" style="endArrow=classic;html=1;entryX=0;entryY=0.75;entryDx=0;entryDy=0;exitX=1;exitY=0.75;exitDx=0;exitDy=0;" parent="B7N0aoRA9KuExFf851mD-1" source="gGaIG061KzgzrlYbOBeM-0" edge="1">
          <mxGeometry width="50" height="50" relative="1" as="geometry">
            <mxPoint x="800" y="-500.5" as="sourcePoint" />
            <mxPoint x="960" y="-664" as="targetPoint" />
          </mxGeometry>
        </mxCell>
        <mxCell id="gGaIG061KzgzrlYbOBeM-13" value="&lt;font style=&quot;font-size: 21px&quot;&gt;1. Connect()&lt;br&gt;2. Publish()&lt;/font&gt;" style="text;html=1;strokeColor=none;fillColor=none;align=left;verticalAlign=middle;whiteSpace=wrap;rounded=0;" parent="B7N0aoRA9KuExFf851mD-1" vertex="1">
          <mxGeometry x="-60" y="-800" width="140" height="80" as="geometry" />
        </mxCell>
        <mxCell id="gGaIG061KzgzrlYbOBeM-14" value="&lt;font style=&quot;font-size: 21px&quot;&gt;1. Connect()&lt;br&gt;2. Subscribe()&lt;br&gt;3. Receive message&lt;br&gt;&lt;/font&gt;" style="text;html=1;strokeColor=none;fillColor=none;align=left;verticalAlign=middle;whiteSpace=wrap;rounded=0;" parent="B7N0aoRA9KuExFf851mD-1" vertex="1">
          <mxGeometry x="870" y="-800" width="200" height="80" as="geometry" />
        </mxCell>
      </root>
    </mxGraphModel>
  </diagram>
  <diagram id="A4hwqxZW5bKRYjwjc6gj" name="Eventing system">
    <mxGraphModel dx="1550" dy="844" grid="1" gridSize="10" guides="1" tooltips="1" connect="1" arrows="1" fold="1" page="1" pageScale="1" pageWidth="827" pageHeight="1169" math="0" shadow="0">
      <root>
        <mxCell id="JlQfFQVRZLz05ikLYp5f-0" />
        <mxCell id="JlQfFQVRZLz05ikLYp5f-1" parent="JlQfFQVRZLz05ikLYp5f-0" />
        <mxCell id="yJTI1dioxyZERYAFxzuS-8" value="" style="rounded=1;whiteSpace=wrap;html=1;" parent="JlQfFQVRZLz05ikLYp5f-1" vertex="1">
          <mxGeometry x="1200" y="1010" width="510" height="260" as="geometry" />
        </mxCell>
        <mxCell id="JlQfFQVRZLz05ikLYp5f-3" value="" style="rounded=0;whiteSpace=wrap;html=1;" parent="JlQfFQVRZLz05ikLYp5f-1" vertex="1">
          <mxGeometry x="160" y="360" width="720" height="170" as="geometry" />
        </mxCell>
        <mxCell id="JlQfFQVRZLz05ikLYp5f-4" value="Socket.io" style="rounded=0;whiteSpace=wrap;html=1;strokeColor=#9673a6;fillColor=#FF6666;" parent="JlQfFQVRZLz05ikLYp5f-1" vertex="1">
          <mxGeometry x="200" y="400" width="140" height="90" as="geometry" />
        </mxCell>
        <mxCell id="JlQfFQVRZLz05ikLYp5f-5" value="MQTT" style="rounded=0;whiteSpace=wrap;html=1;" parent="JlQfFQVRZLz05ikLYp5f-1" vertex="1">
          <mxGeometry x="380" y="420" width="120" height="60" as="geometry" />
        </mxCell>
        <mxCell id="JlQfFQVRZLz05ikLYp5f-6" style="edgeStyle=orthogonalEdgeStyle;rounded=0;orthogonalLoop=1;jettySize=auto;html=1;entryX=0.5;entryY=1;entryDx=0;entryDy=0;" parent="JlQfFQVRZLz05ikLYp5f-1" source="JlQfFQVRZLz05ikLYp5f-16" target="JlQfFQVRZLz05ikLYp5f-21" edge="1">
          <mxGeometry relative="1" as="geometry" />
        </mxCell>
        <mxCell id="JlQfFQVRZLz05ikLYp5f-7" style="edgeStyle=orthogonalEdgeStyle;rounded=0;orthogonalLoop=1;jettySize=auto;html=1;exitX=0.5;exitY=0;exitDx=0;exitDy=0;entryX=0.5;entryY=1;entryDx=0;entryDy=0;" parent="JlQfFQVRZLz05ikLYp5f-1" source="JlQfFQVRZLz05ikLYp5f-8" target="JlQfFQVRZLz05ikLYp5f-23" edge="1">
          <mxGeometry relative="1" as="geometry">
            <mxPoint x="600" y="470" as="targetPoint" />
          </mxGeometry>
        </mxCell>
        <mxCell id="JlQfFQVRZLz05ikLYp5f-8" value="Event SDK" style="rounded=0;whiteSpace=wrap;html=1;" parent="JlQfFQVRZLz05ikLYp5f-1" vertex="1">
          <mxGeometry x="540" y="590" width="120" height="60" as="geometry" />
        </mxCell>
        <mxCell id="JlQfFQVRZLz05ikLYp5f-9" style="edgeStyle=orthogonalEdgeStyle;rounded=0;orthogonalLoop=1;jettySize=auto;html=1;exitX=0.5;exitY=1;exitDx=0;exitDy=0;entryX=0.5;entryY=0;entryDx=0;entryDy=0;" parent="JlQfFQVRZLz05ikLYp5f-1" source="JlQfFQVRZLz05ikLYp5f-11" target="JlQfFQVRZLz05ikLYp5f-20" edge="1">
          <mxGeometry relative="1" as="geometry">
            <mxPoint x="270" y="420" as="targetPoint" />
            <Array as="points">
              <mxPoint x="527" y="320" />
              <mxPoint x="270" y="320" />
            </Array>
          </mxGeometry>
        </mxCell>
        <mxCell id="JlQfFQVRZLz05ikLYp5f-10" style="edgeStyle=orthogonalEdgeStyle;rounded=0;orthogonalLoop=1;jettySize=auto;html=1;exitX=0.75;exitY=0;exitDx=0;exitDy=0;entryX=0;entryY=0.5;entryDx=0;entryDy=0;" parent="JlQfFQVRZLz05ikLYp5f-1" source="JlQfFQVRZLz05ikLYp5f-11" target="JlQfFQVRZLz05ikLYp5f-26" edge="1">
          <mxGeometry relative="1" as="geometry" />
        </mxCell>
        <mxCell id="JlQfFQVRZLz05ikLYp5f-11" value="NATS" style="rounded=0;whiteSpace=wrap;html=1;strokeColor=#6c8ebf;fillColor=#99FF33;" parent="JlQfFQVRZLz05ikLYp5f-1" vertex="1">
          <mxGeometry x="467.5" y="230" width="120" height="60" as="geometry" />
        </mxCell>
        <mxCell id="JlQfFQVRZLz05ikLYp5f-12" style="edgeStyle=orthogonalEdgeStyle;rounded=0;orthogonalLoop=1;jettySize=auto;html=1;exitX=1;exitY=0.5;exitDx=0;exitDy=0;entryX=0.25;entryY=0;entryDx=0;entryDy=0;" parent="JlQfFQVRZLz05ikLYp5f-1" source="JlQfFQVRZLz05ikLYp5f-13" target="JlQfFQVRZLz05ikLYp5f-11" edge="1">
          <mxGeometry relative="1" as="geometry">
            <mxPoint x="496.5" y="210" as="targetPoint" />
          </mxGeometry>
        </mxCell>
        <mxCell id="JlQfFQVRZLz05ikLYp5f-13" value="Cloudevents SDK" style="rounded=0;whiteSpace=wrap;html=1;strokeColor=#6c8ebf;fillColor=#99FF33;" parent="JlQfFQVRZLz05ikLYp5f-1" vertex="1">
          <mxGeometry x="306.5" y="130" width="120" height="60" as="geometry" />
        </mxCell>
        <mxCell id="JlQfFQVRZLz05ikLYp5f-14" style="edgeStyle=orthogonalEdgeStyle;rounded=0;orthogonalLoop=1;jettySize=auto;html=1;exitX=1;exitY=0.5;exitDx=0;exitDy=0;entryX=0;entryY=0.5;entryDx=0;entryDy=0;" parent="JlQfFQVRZLz05ikLYp5f-1" source="JlQfFQVRZLz05ikLYp5f-15" target="JlQfFQVRZLz05ikLYp5f-13" edge="1">
          <mxGeometry relative="1" as="geometry" />
        </mxCell>
        <mxCell id="JlQfFQVRZLz05ikLYp5f-15" value="Cloud Service" style="rounded=0;whiteSpace=wrap;html=1;fillColor=#fff2cc;strokeColor=#d6b656;" parent="JlQfFQVRZLz05ikLYp5f-1" vertex="1">
          <mxGeometry x="76.5" y="130" width="120" height="60" as="geometry" />
        </mxCell>
        <mxCell id="JlQfFQVRZLz05ikLYp5f-16" value="MQTT SDK" style="rounded=0;whiteSpace=wrap;html=1;" parent="JlQfFQVRZLz05ikLYp5f-1" vertex="1">
          <mxGeometry x="380" y="590" width="120" height="60" as="geometry" />
        </mxCell>
        <mxCell id="JlQfFQVRZLz05ikLYp5f-17" value="Cloud&amp;nbsp;Service" style="rounded=0;whiteSpace=wrap;html=1;fillColor=#fff2cc;strokeColor=#d6b656;" parent="JlQfFQVRZLz05ikLYp5f-1" vertex="1">
          <mxGeometry x="843.5" y="130" width="120" height="60" as="geometry" />
        </mxCell>
        <mxCell id="JlQfFQVRZLz05ikLYp5f-18" style="edgeStyle=orthogonalEdgeStyle;rounded=0;orthogonalLoop=1;jettySize=auto;html=1;exitX=0.5;exitY=0;exitDx=0;exitDy=0;entryX=0.5;entryY=1;entryDx=0;entryDy=0;" parent="JlQfFQVRZLz05ikLYp5f-1" source="JlQfFQVRZLz05ikLYp5f-19" target="JlQfFQVRZLz05ikLYp5f-4" edge="1">
          <mxGeometry relative="1" as="geometry">
            <mxPoint x="270" y="480" as="targetPoint" />
          </mxGeometry>
        </mxCell>
        <mxCell id="JlQfFQVRZLz05ikLYp5f-19" value="Socket.io SDK" style="rounded=0;whiteSpace=wrap;html=1;strokeColor=#6c8ebf;fillColor=#99FF33;" parent="JlQfFQVRZLz05ikLYp5f-1" vertex="1">
          <mxGeometry x="210" y="590" width="120" height="60" as="geometry" />
        </mxCell>
        <mxCell id="JlQfFQVRZLz05ikLYp5f-20" value="Mixer" style="rounded=0;whiteSpace=wrap;html=1;fillColor=#d5e8d4;strokeColor=#82b366;" parent="JlQfFQVRZLz05ikLYp5f-1" vertex="1">
          <mxGeometry x="242.5" y="410" width="55" height="20" as="geometry" />
        </mxCell>
        <mxCell id="JlQfFQVRZLz05ikLYp5f-21" value="MQTT" style="rounded=0;whiteSpace=wrap;html=1;" parent="JlQfFQVRZLz05ikLYp5f-1" vertex="1">
          <mxGeometry x="370" y="400" width="140" height="90" as="geometry" />
        </mxCell>
        <mxCell id="JlQfFQVRZLz05ikLYp5f-22" value="Mixer" style="rounded=0;whiteSpace=wrap;html=1;" parent="JlQfFQVRZLz05ikLYp5f-1" vertex="1">
          <mxGeometry x="412.5" y="410" width="55" height="20" as="geometry" />
        </mxCell>
        <mxCell id="JlQfFQVRZLz05ikLYp5f-23" value="WebSocket" style="rounded=0;whiteSpace=wrap;html=1;" parent="JlQfFQVRZLz05ikLYp5f-1" vertex="1">
          <mxGeometry x="530" y="400" width="140" height="90" as="geometry" />
        </mxCell>
        <mxCell id="JlQfFQVRZLz05ikLYp5f-24" value="Mixer" style="rounded=0;whiteSpace=wrap;html=1;" parent="JlQfFQVRZLz05ikLYp5f-1" vertex="1">
          <mxGeometry x="572.5" y="410" width="55" height="20" as="geometry" />
        </mxCell>
        <mxCell id="JlQfFQVRZLz05ikLYp5f-25" style="edgeStyle=orthogonalEdgeStyle;rounded=0;orthogonalLoop=1;jettySize=auto;html=1;exitX=1;exitY=0.5;exitDx=0;exitDy=0;entryX=0;entryY=0.5;entryDx=0;entryDy=0;" parent="JlQfFQVRZLz05ikLYp5f-1" source="JlQfFQVRZLz05ikLYp5f-26" target="JlQfFQVRZLz05ikLYp5f-17" edge="1">
          <mxGeometry relative="1" as="geometry" />
        </mxCell>
        <mxCell id="JlQfFQVRZLz05ikLYp5f-26" value="Cloudevents SDK" style="rounded=0;whiteSpace=wrap;html=1;strokeColor=#6c8ebf;fillColor=#99FF33;" parent="JlQfFQVRZLz05ikLYp5f-1" vertex="1">
          <mxGeometry x="616.5" y="130" width="120" height="60" as="geometry" />
        </mxCell>
        <mxCell id="JlQfFQVRZLz05ikLYp5f-27" style="edgeStyle=orthogonalEdgeStyle;rounded=0;orthogonalLoop=1;jettySize=auto;html=1;exitX=0.5;exitY=0;exitDx=0;exitDy=0;entryX=0.25;entryY=1;entryDx=0;entryDy=0;" parent="JlQfFQVRZLz05ikLYp5f-1" source="JlQfFQVRZLz05ikLYp5f-28" target="JlQfFQVRZLz05ikLYp5f-19" edge="1">
          <mxGeometry relative="1" as="geometry" />
        </mxCell>
        <mxCell id="JlQfFQVRZLz05ikLYp5f-28" value="Web App" style="rounded=0;whiteSpace=wrap;html=1;fillColor=#fff2cc;strokeColor=#d6b656;" parent="JlQfFQVRZLz05ikLYp5f-1" vertex="1">
          <mxGeometry x="110" y="720" width="120" height="60" as="geometry" />
        </mxCell>
        <mxCell id="JlQfFQVRZLz05ikLYp5f-29" style="edgeStyle=orthogonalEdgeStyle;rounded=0;orthogonalLoop=1;jettySize=auto;html=1;exitX=0.75;exitY=1;exitDx=0;exitDy=0;entryX=0.5;entryY=0;entryDx=0;entryDy=0;" parent="JlQfFQVRZLz05ikLYp5f-1" source="JlQfFQVRZLz05ikLYp5f-19" target="JlQfFQVRZLz05ikLYp5f-30" edge="1">
          <mxGeometry relative="1" as="geometry" />
        </mxCell>
        <mxCell id="JlQfFQVRZLz05ikLYp5f-30" value="Web App" style="rounded=0;whiteSpace=wrap;html=1;fillColor=#fff2cc;strokeColor=#d6b656;" parent="JlQfFQVRZLz05ikLYp5f-1" vertex="1">
          <mxGeometry x="320" y="720" width="120" height="60" as="geometry" />
        </mxCell>
        <mxCell id="JlQfFQVRZLz05ikLYp5f-31" value="Mixer" style="rounded=0;whiteSpace=wrap;html=1;" parent="JlQfFQVRZLz05ikLYp5f-1" vertex="1">
          <mxGeometry x="742.5" y="410" width="55" height="20" as="geometry" />
        </mxCell>
        <mxCell id="JlQfFQVRZLz05ikLYp5f-32" value="Webhook" style="rounded=0;whiteSpace=wrap;html=1;" parent="JlQfFQVRZLz05ikLYp5f-1" vertex="1">
          <mxGeometry x="700" y="400" width="140" height="90" as="geometry" />
        </mxCell>
        <mxCell id="JlQfFQVRZLz05ikLYp5f-33" value="Mixer" style="rounded=0;whiteSpace=wrap;html=1;" parent="JlQfFQVRZLz05ikLYp5f-1" vertex="1">
          <mxGeometry x="742.5" y="410" width="55" height="20" as="geometry" />
        </mxCell>
        <mxCell id="5mp_hZvXy3vVeR-ABgqW-2" style="edgeStyle=orthogonalEdgeStyle;rounded=0;orthogonalLoop=1;jettySize=auto;html=1;exitX=0.5;exitY=0;exitDx=0;exitDy=0;entryX=0.5;entryY=1;entryDx=0;entryDy=0;" parent="JlQfFQVRZLz05ikLYp5f-1" source="5mp_hZvXy3vVeR-ABgqW-1" target="5mp_hZvXy3vVeR-ABgqW-5" edge="1">
          <mxGeometry relative="1" as="geometry">
            <mxPoint x="618.25" y="1240" as="targetPoint" />
          </mxGeometry>
        </mxCell>
        <mxCell id="5mp_hZvXy3vVeR-ABgqW-1" value="Web App" style="rounded=0;whiteSpace=wrap;html=1;fillColor=#fff2cc;strokeColor=#d6b656;" parent="JlQfFQVRZLz05ikLYp5f-1" vertex="1">
          <mxGeometry x="516.63" y="1350" width="201.75" height="50" as="geometry" />
        </mxCell>
        <mxCell id="5mp_hZvXy3vVeR-ABgqW-16" style="edgeStyle=orthogonalEdgeStyle;rounded=0;orthogonalLoop=1;jettySize=auto;html=1;exitX=1;exitY=0.5;exitDx=0;exitDy=0;entryX=0;entryY=0.5;entryDx=0;entryDy=0;" parent="JlQfFQVRZLz05ikLYp5f-1" source="5mp_hZvXy3vVeR-ABgqW-3" target="5mp_hZvXy3vVeR-ABgqW-5" edge="1">
          <mxGeometry relative="1" as="geometry" />
        </mxCell>
        <mxCell id="5mp_hZvXy3vVeR-ABgqW-3" value="Cloud Service" style="rounded=0;whiteSpace=wrap;html=1;fillColor=#fff2cc;strokeColor=#d6b656;" parent="JlQfFQVRZLz05ikLYp5f-1" vertex="1">
          <mxGeometry x="210" y="1135" width="120" height="60" as="geometry" />
        </mxCell>
        <mxCell id="5mp_hZvXy3vVeR-ABgqW-19" style="edgeStyle=orthogonalEdgeStyle;rounded=0;orthogonalLoop=1;jettySize=auto;html=1;exitX=0.75;exitY=1;exitDx=0;exitDy=0;entryX=0.944;entryY=-0.1;entryDx=0;entryDy=0;entryPerimeter=0;" parent="JlQfFQVRZLz05ikLYp5f-1" source="5mp_hZvXy3vVeR-ABgqW-5" target="5mp_hZvXy3vVeR-ABgqW-1" edge="1">
          <mxGeometry relative="1" as="geometry" />
        </mxCell>
        <mxCell id="5mp_hZvXy3vVeR-ABgqW-5" value="Horizon Eventing" style="rounded=0;whiteSpace=wrap;html=1;fillColor=#dae8fc;strokeColor=#6c8ebf;" parent="JlQfFQVRZLz05ikLYp5f-1" vertex="1">
          <mxGeometry x="437.5" y="1070" width="360" height="190" as="geometry" />
        </mxCell>
        <mxCell id="5mp_hZvXy3vVeR-ABgqW-6" value="Azure" style="rounded=0;whiteSpace=wrap;html=1;fillColor=#fff2cc;strokeColor=#d6b656;" parent="JlQfFQVRZLz05ikLYp5f-1" vertex="1">
          <mxGeometry x="557.5" y="880" width="120" height="60" as="geometry" />
        </mxCell>
        <mxCell id="5mp_hZvXy3vVeR-ABgqW-7" value="" style="endArrow=classic;html=1;entryX=0.5;entryY=1;entryDx=0;entryDy=0;exitX=0;exitY=0.5;exitDx=0;exitDy=0;" parent="JlQfFQVRZLz05ikLYp5f-1" source="5mp_hZvXy3vVeR-ABgqW-1" target="5mp_hZvXy3vVeR-ABgqW-3" edge="1">
          <mxGeometry width="50" height="50" relative="1" as="geometry">
            <mxPoint x="412.5" y="1370" as="sourcePoint" />
            <mxPoint x="462.5" y="1320" as="targetPoint" />
          </mxGeometry>
        </mxCell>
        <mxCell id="5mp_hZvXy3vVeR-ABgqW-8" value="" style="endArrow=classic;html=1;entryX=0;entryY=0.5;entryDx=0;entryDy=0;exitX=0.5;exitY=0;exitDx=0;exitDy=0;" parent="JlQfFQVRZLz05ikLYp5f-1" source="5mp_hZvXy3vVeR-ABgqW-3" target="5mp_hZvXy3vVeR-ABgqW-6" edge="1">
          <mxGeometry width="50" height="50" relative="1" as="geometry">
            <mxPoint x="150" y="1040" as="sourcePoint" />
            <mxPoint x="200" y="990" as="targetPoint" />
          </mxGeometry>
        </mxCell>
        <mxCell id="5mp_hZvXy3vVeR-ABgqW-10" value="" style="endArrow=classic;html=1;entryX=1;entryY=0;entryDx=0;entryDy=0;exitX=0.25;exitY=1;exitDx=0;exitDy=0;" parent="JlQfFQVRZLz05ikLYp5f-1" source="5mp_hZvXy3vVeR-ABgqW-6" target="5mp_hZvXy3vVeR-ABgqW-3" edge="1">
          <mxGeometry width="50" height="50" relative="1" as="geometry">
            <mxPoint x="810" y="1050" as="sourcePoint" />
            <mxPoint x="860" y="1000" as="targetPoint" />
          </mxGeometry>
        </mxCell>
        <mxCell id="5mp_hZvXy3vVeR-ABgqW-11" value="1" style="text;html=1;strokeColor=none;fillColor=none;align=center;verticalAlign=middle;whiteSpace=wrap;rounded=0;" parent="JlQfFQVRZLz05ikLYp5f-1" vertex="1">
          <mxGeometry x="600" y="1300" width="60" height="30" as="geometry" />
        </mxCell>
        <mxCell id="5mp_hZvXy3vVeR-ABgqW-12" value="2" style="text;html=1;strokeColor=none;fillColor=none;align=center;verticalAlign=middle;whiteSpace=wrap;rounded=0;" parent="JlQfFQVRZLz05ikLYp5f-1" vertex="1">
          <mxGeometry x="426.5" y="1290" width="60" height="30" as="geometry" />
        </mxCell>
        <mxCell id="5mp_hZvXy3vVeR-ABgqW-14" value="3" style="text;html=1;strokeColor=none;fillColor=none;align=center;verticalAlign=middle;whiteSpace=wrap;rounded=0;" parent="JlQfFQVRZLz05ikLYp5f-1" vertex="1">
          <mxGeometry x="360" y="990" width="60" height="30" as="geometry" />
        </mxCell>
        <mxCell id="5mp_hZvXy3vVeR-ABgqW-15" value="4" style="text;html=1;strokeColor=none;fillColor=none;align=center;verticalAlign=middle;whiteSpace=wrap;rounded=0;" parent="JlQfFQVRZLz05ikLYp5f-1" vertex="1">
          <mxGeometry x="467.5" y="1000" width="60" height="30" as="geometry" />
        </mxCell>
        <mxCell id="5mp_hZvXy3vVeR-ABgqW-17" value="5" style="text;html=1;strokeColor=none;fillColor=none;align=center;verticalAlign=middle;whiteSpace=wrap;rounded=0;" parent="JlQfFQVRZLz05ikLYp5f-1" vertex="1">
          <mxGeometry x="354" y="1169" width="60" height="30" as="geometry" />
        </mxCell>
        <mxCell id="5mp_hZvXy3vVeR-ABgqW-18" value="6" style="text;html=1;strokeColor=none;fillColor=none;align=center;verticalAlign=middle;whiteSpace=wrap;rounded=0;" parent="JlQfFQVRZLz05ikLYp5f-1" vertex="1">
          <mxGeometry x="690" y="1290" width="60" height="30" as="geometry" />
        </mxCell>
        <mxCell id="yJTI1dioxyZERYAFxzuS-1" value="" style="rounded=1;whiteSpace=wrap;html=1;" parent="JlQfFQVRZLz05ikLYp5f-1" vertex="1">
          <mxGeometry x="1230" y="1070" width="190" height="150" as="geometry" />
        </mxCell>
        <mxCell id="yJTI1dioxyZERYAFxzuS-2" value="Mixer" style="rounded=0;whiteSpace=wrap;html=1;fillColor=#eeeeee;strokeColor=#36393d;" parent="JlQfFQVRZLz05ikLYp5f-1" vertex="1">
          <mxGeometry x="1265" y="1075" width="120" height="60" as="geometry" />
        </mxCell>
        <mxCell id="yJTI1dioxyZERYAFxzuS-3" value="" style="rounded=1;whiteSpace=wrap;html=1;" parent="JlQfFQVRZLz05ikLYp5f-1" vertex="1">
          <mxGeometry x="1480" y="1070" width="190" height="150" as="geometry" />
        </mxCell>
        <mxCell id="yJTI1dioxyZERYAFxzuS-4" value="Mixer" style="rounded=0;whiteSpace=wrap;html=1;fillColor=#eeeeee;strokeColor=#36393d;" parent="JlQfFQVRZLz05ikLYp5f-1" vertex="1">
          <mxGeometry x="1515" y="1075" width="120" height="60" as="geometry" />
        </mxCell>
        <mxCell id="yJTI1dioxyZERYAFxzuS-5" value="Socket io server" style="text;html=1;strokeColor=none;fillColor=none;align=center;verticalAlign=middle;whiteSpace=wrap;rounded=0;" parent="JlQfFQVRZLz05ikLYp5f-1" vertex="1">
          <mxGeometry x="1280" y="1169" width="95" height="45" as="geometry" />
        </mxCell>
        <mxCell id="yJTI1dioxyZERYAFxzuS-6" value="Socket io server" style="text;html=1;strokeColor=none;fillColor=none;align=center;verticalAlign=middle;whiteSpace=wrap;rounded=0;" parent="JlQfFQVRZLz05ikLYp5f-1" vertex="1">
          <mxGeometry x="1527.5" y="1169" width="95" height="45" as="geometry" />
        </mxCell>
        <mxCell id="yJTI1dioxyZERYAFxzuS-7" value="NATS" style="rounded=1;whiteSpace=wrap;html=1;" parent="JlQfFQVRZLz05ikLYp5f-1" vertex="1">
          <mxGeometry x="1375" y="840" width="165" height="90" as="geometry" />
        </mxCell>
        <mxCell id="yJTI1dioxyZERYAFxzuS-11" style="edgeStyle=orthogonalEdgeStyle;rounded=0;orthogonalLoop=1;jettySize=auto;html=1;exitX=0.5;exitY=0;exitDx=0;exitDy=0;entryX=0.5;entryY=1;entryDx=0;entryDy=0;" parent="JlQfFQVRZLz05ikLYp5f-1" source="yJTI1dioxyZERYAFxzuS-9" target="yJTI1dioxyZERYAFxzuS-1" edge="1">
          <mxGeometry relative="1" as="geometry" />
        </mxCell>
        <mxCell id="yJTI1dioxyZERYAFxzuS-9" value="Client" style="rounded=0;whiteSpace=wrap;html=1;" parent="JlQfFQVRZLz05ikLYp5f-1" vertex="1">
          <mxGeometry x="1265" y="1360" width="120" height="60" as="geometry" />
        </mxCell>
        <mxCell id="yJTI1dioxyZERYAFxzuS-12" value="" style="endArrow=classic;html=1;entryX=0.5;entryY=1;entryDx=0;entryDy=0;exitX=0.5;exitY=0;exitDx=0;exitDy=0;" parent="JlQfFQVRZLz05ikLYp5f-1" source="yJTI1dioxyZERYAFxzuS-2" target="yJTI1dioxyZERYAFxzuS-7" edge="1">
          <mxGeometry width="50" height="50" relative="1" as="geometry">
            <mxPoint x="1010" y="1100" as="sourcePoint" />
            <mxPoint x="1060" y="1050" as="targetPoint" />
          </mxGeometry>
        </mxCell>
        <mxCell id="yJTI1dioxyZERYAFxzuS-13" value="1" style="text;html=1;strokeColor=none;fillColor=none;align=center;verticalAlign=middle;whiteSpace=wrap;rounded=0;" parent="JlQfFQVRZLz05ikLYp5f-1" vertex="1">
          <mxGeometry x="1320" y="1295" width="40" height="20" as="geometry" />
        </mxCell>
        <mxCell id="yJTI1dioxyZERYAFxzuS-14" value="2" style="text;html=1;strokeColor=none;fillColor=none;align=center;verticalAlign=middle;whiteSpace=wrap;rounded=0;" parent="JlQfFQVRZLz05ikLYp5f-1" vertex="1">
          <mxGeometry x="1360" y="970" width="40" height="20" as="geometry" />
        </mxCell>
      </root>
    </mxGraphModel>
  </diagram>
  <diagram id="SLm_F3Nc9j0yUn80GILD" name="EventingV2">
    <mxGraphModel dx="2003" dy="596" grid="1" gridSize="10" guides="1" tooltips="1" connect="1" arrows="1" fold="1" page="1" pageScale="1" pageWidth="827" pageHeight="1169" math="0" shadow="0">
      <root>
        <mxCell id="jFf5zOfqE2vr_b87MqoZ-0" />
        <mxCell id="jFf5zOfqE2vr_b87MqoZ-1" parent="jFf5zOfqE2vr_b87MqoZ-0" />
        <mxCell id="jFf5zOfqE2vr_b87MqoZ-14" value="&lt;br&gt;Cloud Service" style="rounded=0;whiteSpace=wrap;html=1;fillColor=#fff2cc;strokeColor=#d6b656;" parent="jFf5zOfqE2vr_b87MqoZ-1" vertex="1">
          <mxGeometry x="160" y="130" width="176.5" height="60" as="geometry" />
        </mxCell>
        <mxCell id="jFf5zOfqE2vr_b87MqoZ-27" value="Web App" style="rounded=0;whiteSpace=wrap;html=1;fillColor=#fff2cc;strokeColor=#d6b656;" parent="jFf5zOfqE2vr_b87MqoZ-1" vertex="1">
          <mxGeometry x="90" y="720" width="170" height="80" as="geometry" />
        </mxCell>
        <mxCell id="jFf5zOfqE2vr_b87MqoZ-46" value="" style="rounded=1;whiteSpace=wrap;html=1;fillColor=#f5f5f5;strokeColor=#666666;fontColor=#333333;" parent="jFf5zOfqE2vr_b87MqoZ-1" vertex="1">
          <mxGeometry x="1200" y="200" width="310" height="370" as="geometry" />
        </mxCell>
        <mxCell id="jFf5zOfqE2vr_b87MqoZ-34" value="" style="rounded=1;whiteSpace=wrap;html=1;fillColor=#f5f5f5;strokeColor=#666666;fontColor=#333333;" parent="jFf5zOfqE2vr_b87MqoZ-1" vertex="1">
          <mxGeometry x="-110" y="200" width="1197.5" height="375" as="geometry" />
        </mxCell>
        <mxCell id="jFf5zOfqE2vr_b87MqoZ-2" value="" style="rounded=0;whiteSpace=wrap;html=1;" parent="jFf5zOfqE2vr_b87MqoZ-1" vertex="1">
          <mxGeometry x="160" y="360" width="720" height="170" as="geometry" />
        </mxCell>
        <mxCell id="LjRJkFICCtaRlzqOiynu-1" style="edgeStyle=orthogonalEdgeStyle;rounded=0;orthogonalLoop=1;jettySize=auto;html=1;exitX=0.75;exitY=1;exitDx=0;exitDy=0;entryX=0.25;entryY=0;entryDx=0;entryDy=0;" parent="jFf5zOfqE2vr_b87MqoZ-1" source="jFf5zOfqE2vr_b87MqoZ-3" target="LjRJkFICCtaRlzqOiynu-0" edge="1">
          <mxGeometry relative="1" as="geometry" />
        </mxCell>
        <mxCell id="jFf5zOfqE2vr_b87MqoZ-3" value="NodeJS Socket.io" style="rounded=0;whiteSpace=wrap;html=1;strokeColor=#9673a6;fillColor=#FF6666;" parent="jFf5zOfqE2vr_b87MqoZ-1" vertex="1">
          <mxGeometry x="200" y="400" width="140" height="90" as="geometry" />
        </mxCell>
        <mxCell id="jFf5zOfqE2vr_b87MqoZ-4" value="MQTT" style="rounded=0;whiteSpace=wrap;html=1;" parent="jFf5zOfqE2vr_b87MqoZ-1" vertex="1">
          <mxGeometry x="380" y="420" width="120" height="60" as="geometry" />
        </mxCell>
        <mxCell id="jFf5zOfqE2vr_b87MqoZ-5" style="edgeStyle=orthogonalEdgeStyle;rounded=0;orthogonalLoop=1;jettySize=auto;html=1;entryX=0.5;entryY=1;entryDx=0;entryDy=0;" parent="jFf5zOfqE2vr_b87MqoZ-1" source="jFf5zOfqE2vr_b87MqoZ-15" target="jFf5zOfqE2vr_b87MqoZ-20" edge="1">
          <mxGeometry relative="1" as="geometry" />
        </mxCell>
        <mxCell id="jFf5zOfqE2vr_b87MqoZ-6" style="edgeStyle=orthogonalEdgeStyle;rounded=0;orthogonalLoop=1;jettySize=auto;html=1;exitX=0.5;exitY=0;exitDx=0;exitDy=0;entryX=0.5;entryY=1;entryDx=0;entryDy=0;" parent="jFf5zOfqE2vr_b87MqoZ-1" source="jFf5zOfqE2vr_b87MqoZ-7" target="jFf5zOfqE2vr_b87MqoZ-22" edge="1">
          <mxGeometry relative="1" as="geometry">
            <mxPoint x="600" y="470" as="targetPoint" />
          </mxGeometry>
        </mxCell>
        <mxCell id="jFf5zOfqE2vr_b87MqoZ-7" value="Event SDK" style="rounded=0;whiteSpace=wrap;html=1;" parent="jFf5zOfqE2vr_b87MqoZ-1" vertex="1">
          <mxGeometry x="540" y="590" width="120" height="60" as="geometry" />
        </mxCell>
        <mxCell id="jFf5zOfqE2vr_b87MqoZ-8" style="edgeStyle=orthogonalEdgeStyle;rounded=0;orthogonalLoop=1;jettySize=auto;html=1;exitX=0.5;exitY=1;exitDx=0;exitDy=0;entryX=0.5;entryY=0;entryDx=0;entryDy=0;" parent="jFf5zOfqE2vr_b87MqoZ-1" source="jFf5zOfqE2vr_b87MqoZ-10" target="jFf5zOfqE2vr_b87MqoZ-19" edge="1">
          <mxGeometry relative="1" as="geometry">
            <mxPoint x="270" y="420" as="targetPoint" />
            <Array as="points">
              <mxPoint x="527" y="320" />
              <mxPoint x="270" y="320" />
            </Array>
          </mxGeometry>
        </mxCell>
        <mxCell id="jFf5zOfqE2vr_b87MqoZ-9" style="edgeStyle=orthogonalEdgeStyle;rounded=0;orthogonalLoop=1;jettySize=auto;html=1;exitX=0.75;exitY=0;exitDx=0;exitDy=0;entryX=0;entryY=0.5;entryDx=0;entryDy=0;" parent="jFf5zOfqE2vr_b87MqoZ-1" source="jFf5zOfqE2vr_b87MqoZ-10" target="jFf5zOfqE2vr_b87MqoZ-25" edge="1">
          <mxGeometry relative="1" as="geometry" />
        </mxCell>
        <mxCell id="jFf5zOfqE2vr_b87MqoZ-10" value="NATS" style="rounded=0;whiteSpace=wrap;html=1;strokeColor=#6c8ebf;fillColor=#99FF33;" parent="jFf5zOfqE2vr_b87MqoZ-1" vertex="1">
          <mxGeometry x="467.5" y="230" width="120" height="60" as="geometry" />
        </mxCell>
        <mxCell id="jFf5zOfqE2vr_b87MqoZ-11" style="edgeStyle=orthogonalEdgeStyle;rounded=0;orthogonalLoop=1;jettySize=auto;html=1;entryX=0.25;entryY=0;entryDx=0;entryDy=0;exitX=1;exitY=0.5;exitDx=0;exitDy=0;" parent="jFf5zOfqE2vr_b87MqoZ-1" source="jFf5zOfqE2vr_b87MqoZ-12" target="jFf5zOfqE2vr_b87MqoZ-10" edge="1">
          <mxGeometry relative="1" as="geometry">
            <mxPoint x="496.5" y="210" as="targetPoint" />
            <mxPoint x="300" y="145" as="sourcePoint" />
          </mxGeometry>
        </mxCell>
        <mxCell id="jFf5zOfqE2vr_b87MqoZ-12" value="Cloudevents SDK" style="rounded=0;whiteSpace=wrap;html=1;strokeColor=#6c8ebf;fillColor=#99FF33;" parent="jFf5zOfqE2vr_b87MqoZ-1" vertex="1">
          <mxGeometry x="233" y="130" width="103.5" height="30" as="geometry" />
        </mxCell>
        <mxCell id="jFf5zOfqE2vr_b87MqoZ-15" value="MQTT SDK" style="rounded=0;whiteSpace=wrap;html=1;" parent="jFf5zOfqE2vr_b87MqoZ-1" vertex="1">
          <mxGeometry x="380" y="590" width="120" height="60" as="geometry" />
        </mxCell>
        <mxCell id="jFf5zOfqE2vr_b87MqoZ-16" value="&lt;br&gt;&lt;br&gt;Cloud&amp;nbsp;Service" style="rounded=0;whiteSpace=wrap;html=1;fillColor=#fff2cc;strokeColor=#d6b656;" parent="jFf5zOfqE2vr_b87MqoZ-1" vertex="1">
          <mxGeometry x="710" y="130" width="196.5" height="60" as="geometry" />
        </mxCell>
        <mxCell id="jFf5zOfqE2vr_b87MqoZ-17" style="edgeStyle=orthogonalEdgeStyle;rounded=0;orthogonalLoop=1;jettySize=auto;html=1;exitX=0.5;exitY=0;exitDx=0;exitDy=0;entryX=0.25;entryY=1;entryDx=0;entryDy=0;" parent="jFf5zOfqE2vr_b87MqoZ-1" source="jFf5zOfqE2vr_b87MqoZ-18" target="jFf5zOfqE2vr_b87MqoZ-3" edge="1">
          <mxGeometry relative="1" as="geometry">
            <mxPoint x="270" y="480" as="targetPoint" />
          </mxGeometry>
        </mxCell>
        <mxCell id="jFf5zOfqE2vr_b87MqoZ-18" value="web Client SDK" style="rounded=0;whiteSpace=wrap;html=1;strokeColor=#b85450;fillColor=#f8cecc;" parent="jFf5zOfqE2vr_b87MqoZ-1" vertex="1">
          <mxGeometry x="166.5" y="720" width="93.5" height="30" as="geometry" />
        </mxCell>
        <mxCell id="jFf5zOfqE2vr_b87MqoZ-19" value="Mixer" style="rounded=0;whiteSpace=wrap;html=1;fillColor=#d5e8d4;strokeColor=#82b366;" parent="jFf5zOfqE2vr_b87MqoZ-1" vertex="1">
          <mxGeometry x="242.5" y="410" width="55" height="20" as="geometry" />
        </mxCell>
        <mxCell id="jFf5zOfqE2vr_b87MqoZ-20" value="MQTT" style="rounded=0;whiteSpace=wrap;html=1;" parent="jFf5zOfqE2vr_b87MqoZ-1" vertex="1">
          <mxGeometry x="370" y="400" width="140" height="90" as="geometry" />
        </mxCell>
        <mxCell id="jFf5zOfqE2vr_b87MqoZ-21" value="Mixer" style="rounded=0;whiteSpace=wrap;html=1;" parent="jFf5zOfqE2vr_b87MqoZ-1" vertex="1">
          <mxGeometry x="412.5" y="410" width="55" height="20" as="geometry" />
        </mxCell>
        <mxCell id="jFf5zOfqE2vr_b87MqoZ-22" value="WebSocket" style="rounded=0;whiteSpace=wrap;html=1;" parent="jFf5zOfqE2vr_b87MqoZ-1" vertex="1">
          <mxGeometry x="530" y="400" width="140" height="90" as="geometry" />
        </mxCell>
        <mxCell id="jFf5zOfqE2vr_b87MqoZ-23" value="Mixer" style="rounded=0;whiteSpace=wrap;html=1;" parent="jFf5zOfqE2vr_b87MqoZ-1" vertex="1">
          <mxGeometry x="572.5" y="410" width="55" height="20" as="geometry" />
        </mxCell>
        <mxCell id="jFf5zOfqE2vr_b87MqoZ-25" value="Cloudevents SDK" style="rounded=0;whiteSpace=wrap;html=1;strokeColor=#6c8ebf;fillColor=#99FF33;" parent="jFf5zOfqE2vr_b87MqoZ-1" vertex="1">
          <mxGeometry x="710" y="130" width="120" height="30" as="geometry" />
        </mxCell>
        <mxCell id="jFf5zOfqE2vr_b87MqoZ-49" style="edgeStyle=orthogonalEdgeStyle;rounded=0;orthogonalLoop=1;jettySize=auto;html=1;exitX=1;exitY=0.25;exitDx=0;exitDy=0;" parent="jFf5zOfqE2vr_b87MqoZ-1" source="jFf5zOfqE2vr_b87MqoZ-29" edge="1">
          <mxGeometry relative="1" as="geometry">
            <mxPoint x="950" y="480" as="targetPoint" />
          </mxGeometry>
        </mxCell>
        <mxCell id="jFf5zOfqE2vr_b87MqoZ-29" value="Web App" style="rounded=0;whiteSpace=wrap;html=1;fillColor=#fff2cc;strokeColor=#d6b656;" parent="jFf5zOfqE2vr_b87MqoZ-1" vertex="1">
          <mxGeometry x="306.5" y="720" width="170" height="80" as="geometry" />
        </mxCell>
        <mxCell id="jFf5zOfqE2vr_b87MqoZ-30" value="Mixer" style="rounded=0;whiteSpace=wrap;html=1;" parent="jFf5zOfqE2vr_b87MqoZ-1" vertex="1">
          <mxGeometry x="742.5" y="410" width="55" height="20" as="geometry" />
        </mxCell>
        <mxCell id="jFf5zOfqE2vr_b87MqoZ-31" value="Webhook" style="rounded=0;whiteSpace=wrap;html=1;" parent="jFf5zOfqE2vr_b87MqoZ-1" vertex="1">
          <mxGeometry x="700" y="400" width="140" height="90" as="geometry" />
        </mxCell>
        <mxCell id="jFf5zOfqE2vr_b87MqoZ-32" value="Mixer" style="rounded=0;whiteSpace=wrap;html=1;" parent="jFf5zOfqE2vr_b87MqoZ-1" vertex="1">
          <mxGeometry x="742.5" y="410" width="55" height="20" as="geometry" />
        </mxCell>
        <mxCell id="jFf5zOfqE2vr_b87MqoZ-37" value="Horizon eventing" style="text;html=1;strokeColor=none;fillColor=none;align=center;verticalAlign=middle;whiteSpace=wrap;rounded=0;" parent="jFf5zOfqE2vr_b87MqoZ-1" vertex="1">
          <mxGeometry x="710" y="240" width="130" height="20" as="geometry" />
        </mxCell>
        <mxCell id="jFf5zOfqE2vr_b87MqoZ-50" style="edgeStyle=orthogonalEdgeStyle;rounded=0;orthogonalLoop=1;jettySize=auto;html=1;exitX=0.75;exitY=0;exitDx=0;exitDy=0;entryX=0.5;entryY=0;entryDx=0;entryDy=0;" parent="jFf5zOfqE2vr_b87MqoZ-1" source="jFf5zOfqE2vr_b87MqoZ-43" target="jFf5zOfqE2vr_b87MqoZ-48" edge="1">
          <mxGeometry relative="1" as="geometry" />
        </mxCell>
        <mxCell id="jFf5zOfqE2vr_b87MqoZ-52" style="edgeStyle=orthogonalEdgeStyle;rounded=0;orthogonalLoop=1;jettySize=auto;html=1;exitX=0.75;exitY=1;exitDx=0;exitDy=0;entryX=1;entryY=0.75;entryDx=0;entryDy=0;" parent="jFf5zOfqE2vr_b87MqoZ-1" source="jFf5zOfqE2vr_b87MqoZ-43" target="jFf5zOfqE2vr_b87MqoZ-29" edge="1">
          <mxGeometry relative="1" as="geometry" />
        </mxCell>
        <mxCell id="jFf5zOfqE2vr_b87MqoZ-43" value="Oauth" style="rounded=0;whiteSpace=wrap;html=1;" parent="jFf5zOfqE2vr_b87MqoZ-1" vertex="1">
          <mxGeometry x="910" y="400" width="130" height="80" as="geometry" />
        </mxCell>
        <mxCell id="jFf5zOfqE2vr_b87MqoZ-47" value="Solution" style="text;html=1;strokeColor=none;fillColor=none;align=center;verticalAlign=middle;whiteSpace=wrap;rounded=0;" parent="jFf5zOfqE2vr_b87MqoZ-1" vertex="1">
          <mxGeometry x="1250" y="230" width="80" height="20" as="geometry" />
        </mxCell>
        <mxCell id="jFf5zOfqE2vr_b87MqoZ-51" style="edgeStyle=orthogonalEdgeStyle;rounded=0;orthogonalLoop=1;jettySize=auto;html=1;exitX=0.75;exitY=0;exitDx=0;exitDy=0;entryX=0.25;entryY=0;entryDx=0;entryDy=0;" parent="jFf5zOfqE2vr_b87MqoZ-1" source="jFf5zOfqE2vr_b87MqoZ-48" target="jFf5zOfqE2vr_b87MqoZ-43" edge="1">
          <mxGeometry relative="1" as="geometry">
            <Array as="points">
              <mxPoint x="1370" y="360" />
              <mxPoint x="943" y="360" />
            </Array>
          </mxGeometry>
        </mxCell>
        <mxCell id="jFf5zOfqE2vr_b87MqoZ-48" value="service&amp;nbsp;" style="rounded=0;whiteSpace=wrap;html=1;" parent="jFf5zOfqE2vr_b87MqoZ-1" vertex="1">
          <mxGeometry x="1280" y="400" width="120" height="60" as="geometry" />
        </mxCell>
        <mxCell id="zBKvG9WcGlHwZvGFUdyg-4" style="edgeStyle=orthogonalEdgeStyle;rounded=0;orthogonalLoop=1;jettySize=auto;html=1;exitX=0.5;exitY=0;exitDx=0;exitDy=0;" parent="jFf5zOfqE2vr_b87MqoZ-1" source="zBKvG9WcGlHwZvGFUdyg-0" target="zBKvG9WcGlHwZvGFUdyg-2" edge="1">
          <mxGeometry relative="1" as="geometry" />
        </mxCell>
        <mxCell id="a8n00A0Bdw1ASQvOs6Mf-3" style="edgeStyle=orthogonalEdgeStyle;rounded=0;orthogonalLoop=1;jettySize=auto;html=1;exitX=0.5;exitY=1;exitDx=0;exitDy=0;entryX=0.5;entryY=0;entryDx=0;entryDy=0;entryPerimeter=0;" edge="1" parent="jFf5zOfqE2vr_b87MqoZ-1" source="zBKvG9WcGlHwZvGFUdyg-0" target="a8n00A0Bdw1ASQvOs6Mf-0">
          <mxGeometry relative="1" as="geometry" />
        </mxCell>
        <mxCell id="zBKvG9WcGlHwZvGFUdyg-0" value="Eventing Resource mgmt service" style="rounded=0;whiteSpace=wrap;html=1;" parent="jFf5zOfqE2vr_b87MqoZ-1" vertex="1">
          <mxGeometry x="-30" y="420" width="120" height="60" as="geometry" />
        </mxCell>
        <mxCell id="zBKvG9WcGlHwZvGFUdyg-1" value="Dev portal" style="shape=umlActor;verticalLabelPosition=bottom;verticalAlign=top;html=1;outlineConnect=0;" parent="jFf5zOfqE2vr_b87MqoZ-1" vertex="1">
          <mxGeometry x="-320" y="415" width="30" height="60" as="geometry" />
        </mxCell>
        <mxCell id="zBKvG9WcGlHwZvGFUdyg-5" style="edgeStyle=orthogonalEdgeStyle;rounded=0;orthogonalLoop=1;jettySize=auto;html=1;exitX=1;exitY=0.5;exitDx=0;exitDy=0;" parent="jFf5zOfqE2vr_b87MqoZ-1" source="zBKvG9WcGlHwZvGFUdyg-2" target="jFf5zOfqE2vr_b87MqoZ-10" edge="1">
          <mxGeometry relative="1" as="geometry" />
        </mxCell>
        <mxCell id="zBKvG9WcGlHwZvGFUdyg-2" value="GAIA" style="rounded=0;whiteSpace=wrap;html=1;" parent="jFf5zOfqE2vr_b87MqoZ-1" vertex="1">
          <mxGeometry x="-30" y="230" width="120" height="60" as="geometry" />
        </mxCell>
        <mxCell id="zBKvG9WcGlHwZvGFUdyg-3" value="" style="endArrow=classic;html=1;entryX=0;entryY=0.5;entryDx=0;entryDy=0;" parent="jFf5zOfqE2vr_b87MqoZ-1" target="zBKvG9WcGlHwZvGFUdyg-0" edge="1">
          <mxGeometry width="50" height="50" relative="1" as="geometry">
            <mxPoint x="-260" y="450" as="sourcePoint" />
            <mxPoint x="-190" y="480" as="targetPoint" />
          </mxGeometry>
        </mxCell>
        <mxCell id="kjlXTGb0isR0S603wk9U-1" value="A" style="text;html=1;strokeColor=none;fillColor=none;align=center;verticalAlign=middle;whiteSpace=wrap;rounded=0;" parent="jFf5zOfqE2vr_b87MqoZ-1" vertex="1">
          <mxGeometry x="-100" y="420" width="60" height="20" as="geometry" />
        </mxCell>
        <mxCell id="kjlXTGb0isR0S603wk9U-2" value="&lt;font style=&quot;font-size: 14px&quot;&gt;1.&amp;nbsp; &amp;nbsp;The eventing resource mgmt service(A) will serve some mgmt API from dev portal.&amp;nbsp; LIke&lt;br&gt;&amp;nbsp; &amp;nbsp; &amp;nbsp; a.&amp;nbsp; We can create creadential which will be used by the cloud back end service to communicate with eventing system. This credential have permission info bind to it, like what`s the channel this credential can publish/subscribe,&amp;nbsp; whether this credential can publish to client(web client)&amp;nbsp;&lt;br&gt;&amp;nbsp; &amp;nbsp; &amp;nbsp; b. This service need interacte with gaia(dev portal back end), since it will make use of the native nats auth mechanism. (Need more poc effort)&amp;nbsp;&lt;br&gt;&lt;br&gt;&amp;nbsp; &amp;nbsp; &amp;nbsp; Also for websocket server, we may can config each channel(like how long solution want persist message at memory or disk,&amp;nbsp; what is the QOS for each channel)&lt;br&gt;&lt;br&gt;2.&amp;nbsp; Mixer at each component is the adapter for different protocal with nats&lt;br&gt;&lt;br&gt;3. If using horizon oauth for login,&amp;nbsp; during the login,&amp;nbsp; horizon oauth will make use of customized rule engine, to get the permission for related user, and the issue token to client.&amp;nbsp;&lt;br&gt;&amp;nbsp; &amp;nbsp; Solution is responsible for provide the hook for get the permission info for this user(If do not provide, will use default one)&lt;br&gt;&amp;nbsp; &amp;nbsp; permission looks like:&lt;br&gt;&amp;nbsp; &amp;nbsp; {&lt;br&gt;&amp;nbsp; &amp;nbsp;&lt;span&gt; &lt;/span&gt;channelA: [publish]&lt;br&gt;&amp;nbsp; &amp;nbsp; &amp;nbsp; &amp;nbsp; channelB: [publish, subscribe]&lt;br&gt;&amp;nbsp; &amp;nbsp; }&lt;br&gt;&lt;br&gt;4. For C above,&amp;nbsp; if solution not use horizon Oauth,&amp;nbsp; solution need use portal to create one key.&amp;nbsp; This key will be used for non horizon issued token validation. eventing service expecting capability claim.&lt;br&gt;&lt;/font&gt;" style="text;html=1;strokeColor=none;fillColor=none;align=left;verticalAlign=middle;whiteSpace=wrap;rounded=0;" parent="jFf5zOfqE2vr_b87MqoZ-1" vertex="1">
          <mxGeometry x="-21.25" y="820" width="1020" height="330" as="geometry" />
        </mxCell>
        <mxCell id="kjlXTGb0isR0S603wk9U-3" value="B" style="text;html=1;strokeColor=none;fillColor=none;align=center;verticalAlign=middle;whiteSpace=wrap;rounded=0;" parent="jFf5zOfqE2vr_b87MqoZ-1" vertex="1">
          <mxGeometry x="1130" y="380" width="40" height="20" as="geometry" />
        </mxCell>
        <mxCell id="LjRJkFICCtaRlzqOiynu-0" value="web Client SDK" style="rounded=0;whiteSpace=wrap;html=1;strokeColor=#b85450;fillColor=#f8cecc;" parent="jFf5zOfqE2vr_b87MqoZ-1" vertex="1">
          <mxGeometry x="306.5" y="720" width="93.5" height="30" as="geometry" />
        </mxCell>
        <mxCell id="a8n00A0Bdw1ASQvOs6Mf-2" style="edgeStyle=orthogonalEdgeStyle;rounded=0;orthogonalLoop=1;jettySize=auto;html=1;exitX=1;exitY=0.5;exitDx=0;exitDy=0;exitPerimeter=0;entryX=0;entryY=0.5;entryDx=0;entryDy=0;" edge="1" parent="jFf5zOfqE2vr_b87MqoZ-1" source="a8n00A0Bdw1ASQvOs6Mf-0" target="jFf5zOfqE2vr_b87MqoZ-3">
          <mxGeometry relative="1" as="geometry" />
        </mxCell>
        <mxCell id="a8n00A0Bdw1ASQvOs6Mf-0" value="DB" style="shape=cylinder3;whiteSpace=wrap;html=1;boundedLbl=1;backgroundOutline=1;size=15;" vertex="1" parent="jFf5zOfqE2vr_b87MqoZ-1">
          <mxGeometry x="-25" y="510" width="110" height="55" as="geometry" />
        </mxCell>
        <mxCell id="a8n00A0Bdw1ASQvOs6Mf-4" value="C" style="text;html=1;strokeColor=none;fillColor=none;align=center;verticalAlign=middle;whiteSpace=wrap;rounded=0;" vertex="1" parent="jFf5zOfqE2vr_b87MqoZ-1">
          <mxGeometry x="85" y="510" width="60" height="20" as="geometry" />
        </mxCell>
      </root>
    </mxGraphModel>
  </diagram>
  <diagram id="gDnY3f0b4e7UKJ-kOjnB" name="Page-7">
    <mxGraphModel dx="1000" dy="507" grid="1" gridSize="10" guides="1" tooltips="1" connect="1" arrows="1" fold="1" page="1" pageScale="1" pageWidth="827" pageHeight="1169" math="0" shadow="0">
      <root>
        <mxCell id="OC1rE86Df2iFr5JN7-1X-0" />
        <mxCell id="OC1rE86Df2iFr5JN7-1X-1" parent="OC1rE86Df2iFr5JN7-1X-0" />
      </root>
    </mxGraphModel>
  </diagram>
</mxfile>
